<svg width="179" height="17" viewBox="0 0 179 17" fill="none" xmlns="http://www.w3.org/2000/svg">
<g id="Group 1125">
<path id="Vector" fill-rule="evenodd" clip-rule="evenodd" d="M67.0488 16.4361H66.0761C65.3916 16.4361 64.8358 15.9542 64.8358 15.3608V1.76019C64.8358 1.16673 65.3916 0.684814 66.0761 0.684814H67.0488C67.7333 0.684814 68.2891 1.16673 68.2891 1.76019V15.3608C68.2891 15.9542 67.7333 16.4361 67.0488 16.4361Z" fill="#FACBB7"/>
<path id="Vector_2" fill-rule="evenodd" clip-rule="evenodd" d="M61.2241 16.4361H60.2514C59.5669 16.4361 59.0111 15.9542 59.0111 15.3608V1.76019C59.0111 1.16673 59.5669 0.684814 60.2514 0.684814H61.2241C61.9086 0.684814 62.4644 1.16673 62.4644 1.76019V15.3608C62.4644 15.9542 61.9086 16.4361 61.2241 16.4361Z" fill="#FACBB7"/>
<path id="Vector_3" fill-rule="evenodd" clip-rule="evenodd" d="M55.3993 16.4361H54.4266C53.7421 16.4361 53.1863 15.9542 53.1863 15.3608V1.76019C53.1863 1.16673 53.7421 0.684814 54.4266 0.684814H55.3993C56.0838 0.684814 56.6396 1.16673 56.6396 1.76019V15.3608C56.6396 15.9542 56.0838 16.4361 55.3993 16.4361Z" fill="#FACBB7"/>
<path id="Vector_4" fill-rule="evenodd" clip-rule="evenodd" d="M49.5746 16.4361H48.6019C47.9174 16.4361 47.3616 15.9542 47.3616 15.3608V1.76019C47.3616 1.16673 47.9174 0.684814 48.6019 0.684814H49.5746C50.2591 0.684814 50.8149 1.16673 50.8149 1.76019V15.3608C50.8149 15.9542 50.2591 16.4361 49.5746 16.4361Z" fill="#FACBB7"/>
<path id="Vector_5" fill-rule="evenodd" clip-rule="evenodd" d="M43.7499 16.4361H42.7772C42.0927 16.4361 41.5369 15.9542 41.5369 15.3608V1.76019C41.5369 1.16673 42.0927 0.684814 42.7772 0.684814H43.7499C44.4343 0.684814 44.9902 1.16673 44.9902 1.76019V15.3608C44.9902 15.9542 44.4343 16.4361 43.7499 16.4361Z" fill="#FACBB7" fill-opacity="0.9"/>
<path id="Vector_6" fill-rule="evenodd" clip-rule="evenodd" d="M37.925 16.4361H36.9523C36.2679 16.4361 35.712 15.9542 35.712 15.3608V1.76019C35.712 1.16673 36.2679 0.684814 36.9523 0.684814H37.925C38.6095 0.684814 39.1653 1.16673 39.1653 1.76019V15.3608C39.1653 15.9542 38.6095 16.4361 37.925 16.4361Z" fill="#FACBB7" fill-opacity="0.8"/>
<path id="Vector_7" fill-rule="evenodd" clip-rule="evenodd" d="M32.1003 16.4361H31.1276C30.4432 16.4361 29.8873 15.9542 29.8873 15.3608V1.76019C29.8873 1.16673 30.4432 0.684814 31.1276 0.684814H32.1003C32.7848 0.684814 33.3406 1.16673 33.3406 1.76019V15.3608C33.3406 15.9542 32.7848 16.4361 32.1003 16.4361Z" fill="#FACBB7" fill-opacity="0.7"/>
<path id="Vector_8" fill-rule="evenodd" clip-rule="evenodd" d="M26.2756 16.4361H25.3029C24.6184 16.4361 24.0626 15.9542 24.0626 15.3608V1.76019C24.0626 1.16673 24.6184 0.684814 25.3029 0.684814H26.2756C26.9601 0.684814 27.5159 1.16673 27.5159 1.76019V15.3608C27.5159 15.9542 26.9601 16.4361 26.2756 16.4361Z" fill="#FACBB7" fill-opacity="0.6"/>
<path id="Vector_9" fill-rule="evenodd" clip-rule="evenodd" d="M20.4508 16.4361H19.4781C18.7936 16.4361 18.2378 15.9542 18.2378 15.3608V1.76019C18.2378 1.16673 18.7936 0.684814 19.4781 0.684814H20.4508C21.1353 0.684814 21.6911 1.16673 21.6911 1.76019V15.3608C21.6911 15.9542 21.1353 16.4361 20.4508 16.4361Z" fill="#FACBB7" fill-opacity="0.5"/>
<path id="Vector_10" fill-rule="evenodd" clip-rule="evenodd" d="M14.6263 16.4361H13.6536C12.9692 16.4361 12.4133 15.9542 12.4133 15.3608V1.76019C12.4133 1.16673 12.9692 0.684814 13.6536 0.684814H14.6263C15.3108 0.684814 15.8666 1.16673 15.8666 1.76019V15.3608C15.8666 15.9542 15.3108 16.4361 14.6263 16.4361Z" fill="#FACBB7" fill-opacity="0.4"/>
<path id="Vector_11" fill-rule="evenodd" clip-rule="evenodd" d="M8.80211 16.4361H7.82942C7.14493 16.4361 6.58911 15.9542 6.58911 15.3608V1.76019C6.58911 1.16673 7.14493 0.684814 7.82942 0.684814H8.80211C9.4866 0.684814 10.0424 1.16673 10.0424 1.76019V15.3608C10.0424 15.9542 9.4866 16.4361 8.80211 16.4361Z" fill="#FACBB7" fill-opacity="0.3"/>
<path id="Vector_12" fill-rule="evenodd" clip-rule="evenodd" d="M2.97765 16.4361H2.00496C1.32047 16.4361 0.764648 15.9542 0.764648 15.3608V1.76019C0.764648 1.16673 1.32047 0.684814 2.00496 0.684814H2.97765C3.66213 0.684814 4.21796 1.16673 4.21796 1.76019V15.3608C4.21796 15.9542 3.66213 16.4361 2.97765 16.4361Z" fill="#FACBB7" fill-opacity="0.2"/>
<path id="Vector_13" fill-rule="evenodd" clip-rule="evenodd" d="M170.391 15.9716L178.229 9.17573C178.713 8.75629 178.713 8.07359 178.229 7.65861L170.391 0.862788C170.03 0.550439 169.516 0.461201 169.042 0.630762C168.569 0.800323 168.275 1.1796 168.275 1.62135V15.213C168.275 15.6547 168.569 16.034 169.042 16.2036C169.516 16.3731 170.03 16.2839 170.391 15.9716Z" fill="#AE0F0A"/>
<path id="Vector_14" fill-rule="evenodd" clip-rule="evenodd" d="M72.8335 16.4361H71.8608C71.1763 16.4361 70.6205 15.9542 70.6205 15.3608V1.76019C70.6205 1.16673 71.1763 0.684814 71.8608 0.684814H72.8335C73.518 0.684814 74.0738 1.16673 74.0738 1.76019V15.3608C74.0738 15.9542 73.518 16.4361 72.8335 16.4361Z" fill="#F5C0AA"/>
<path id="Vector_15" fill-rule="evenodd" clip-rule="evenodd" d="M78.6131 16.4361H77.6405C76.956 16.4361 76.4001 15.9542 76.4001 15.3608V1.76019C76.4001 1.16673 76.956 0.684814 77.6405 0.684814H78.6131C79.2976 0.684814 79.8535 1.16673 79.8535 1.76019V15.3608C79.8535 15.9542 79.2976 16.4361 78.6131 16.4361Z" fill="#F0B59C"/>
<path id="Vector_16" fill-rule="evenodd" clip-rule="evenodd" d="M84.3924 16.4361H83.4198C82.7353 16.4361 82.1794 15.9542 82.1794 15.3608V1.76019C82.1794 1.16673 82.7353 0.684814 83.4198 0.684814H84.3924C85.0769 0.684814 85.6328 1.16673 85.6328 1.76019V15.3608C85.6328 15.9542 85.0769 16.4361 84.3924 16.4361Z" fill="#EDA990"/>
<path id="Vector_17" fill-rule="evenodd" clip-rule="evenodd" d="M90.1721 16.4361H89.1994C88.5149 16.4361 87.9591 15.9542 87.9591 15.3608V1.76019C87.9591 1.16673 88.5149 0.684814 89.1994 0.684814H90.1721C90.8566 0.684814 91.4124 1.16673 91.4124 1.76019V15.3608C91.4124 15.9542 90.8566 16.4361 90.1721 16.4361Z" fill="#E89E84"/>
<path id="Vector_18" fill-rule="evenodd" clip-rule="evenodd" d="M95.9518 16.4361H94.9791C94.2946 16.4361 93.7388 15.9542 93.7388 15.3608V1.76019C93.7388 1.16673 94.2946 0.684814 94.9791 0.684814H95.9518C96.6363 0.684814 97.1921 1.16673 97.1921 1.76019V15.3608C97.1921 15.9542 96.6363 16.4361 95.9518 16.4361Z" fill="#E39476"/>
<path id="Vector_19" fill-rule="evenodd" clip-rule="evenodd" d="M101.736 16.4361H100.763C100.079 16.4361 99.5231 15.9542 99.5231 15.3608V1.76019C99.5231 1.16673 100.079 0.684814 100.763 0.684814H101.736C102.421 0.684814 102.976 1.16673 102.976 1.76019V15.3608C102.976 15.9542 102.421 16.4361 101.736 16.4361Z" fill="#DE876A"/>
<path id="Vector_20" fill-rule="evenodd" clip-rule="evenodd" d="M107.516 16.4361H106.543C105.859 16.4361 105.303 15.9542 105.303 15.3608V1.76019C105.303 1.16673 105.859 0.684814 106.543 0.684814H107.516C108.2 0.684814 108.756 1.16673 108.756 1.76019V15.3608C108.756 15.9542 108.2 16.4361 107.516 16.4361Z" fill="#D97D60"/>
<path id="Vector_21" fill-rule="evenodd" clip-rule="evenodd" d="M113.295 16.4361H112.323C111.638 16.4361 111.082 15.9542 111.082 15.3608V1.76019C111.082 1.16673 111.638 0.684814 112.323 0.684814H113.295C113.98 0.684814 114.536 1.16673 114.536 1.76019V15.3608C114.536 15.9542 113.98 16.4361 113.295 16.4361Z" fill="#D67354"/>
<path id="Vector_22" fill-rule="evenodd" clip-rule="evenodd" d="M119.075 16.4361H118.102C117.418 16.4361 116.862 15.9542 116.862 15.3608V1.76019C116.862 1.16673 117.418 0.684814 118.102 0.684814H119.075C119.759 0.684814 120.315 1.16673 120.315 1.76019V15.3608C120.315 15.9542 119.759 16.4361 119.075 16.4361Z" fill="#D2694C"/>
<path id="Vector_23" fill-rule="evenodd" clip-rule="evenodd" d="M124.855 16.4361H123.882C123.197 16.4361 122.642 15.9542 122.642 15.3608V1.76019C122.642 1.16673 123.197 0.684814 123.882 0.684814H124.855C125.539 0.684814 126.095 1.16673 126.095 1.76019V15.3608C126.095 15.9542 125.539 16.4361 124.855 16.4361Z" fill="#CD5C41"/>
<path id="Vector_24" fill-rule="evenodd" clip-rule="evenodd" d="M130.639 16.4361H129.666C128.982 16.4361 128.426 15.9542 128.426 15.3608V1.76019C128.426 1.16673 128.982 0.684814 129.666 0.684814H130.639C131.324 0.684814 131.879 1.16673 131.879 1.76019V15.3608C131.879 15.9542 131.324 16.4361 130.639 16.4361Z" fill="#C85338"/>
<path id="Vector_25" fill-rule="evenodd" clip-rule="evenodd" d="M136.419 16.4361H135.446C134.761 16.4361 134.206 15.9542 134.206 15.3608V1.76019C134.206 1.16673 134.761 0.684814 135.446 0.684814H136.419C137.103 0.684814 137.659 1.16673 137.659 1.76019V15.3608C137.659 15.9542 137.103 16.4361 136.419 16.4361Z" fill="#C4492F"/>
<path id="Vector_26" fill-rule="evenodd" clip-rule="evenodd" d="M142.198 16.4361H141.225C140.541 16.4361 139.985 15.9542 139.985 15.3608V1.76019C139.985 1.16673 140.541 0.684814 141.225 0.684814H142.198C142.882 0.684814 143.438 1.16673 143.438 1.76019V15.3608C143.438 15.9542 142.882 16.4361 142.198 16.4361Z" fill="#BF3D25"/>
<path id="Vector_27" fill-rule="evenodd" clip-rule="evenodd" d="M147.978 16.4361H147.005C146.32 16.4361 145.765 15.9542 145.765 15.3608V1.76019C145.765 1.16673 146.32 0.684814 147.005 0.684814H147.978C148.662 0.684814 149.218 1.16673 149.218 1.76019V15.3608C149.218 15.9542 148.662 16.4361 147.978 16.4361Z" fill="#BA331E"/>
<path id="Vector_28" fill-rule="evenodd" clip-rule="evenodd" d="M153.757 16.4361H152.784C152.1 16.4361 151.544 15.9542 151.544 15.3608V1.76019C151.544 1.16673 152.1 0.684814 152.784 0.684814H153.757C154.442 0.684814 154.997 1.16673 154.997 1.76019V15.3608C154.997 15.9542 154.442 16.4361 153.757 16.4361Z" fill="#B52A17"/>
<path id="Vector_29" fill-rule="evenodd" clip-rule="evenodd" d="M159.542 16.4361H158.569C157.885 16.4361 157.329 15.9542 157.329 15.3608V1.76019C157.329 1.16673 157.885 0.684814 158.569 0.684814H159.542C160.226 0.684814 160.782 1.16673 160.782 1.76019V15.3608C160.782 15.9542 160.226 16.4361 159.542 16.4361Z" fill="#B31D10"/>
<path id="Vector_30" fill-rule="evenodd" clip-rule="evenodd" d="M165.321 16.4361H164.349C163.664 16.4361 163.108 15.9542 163.108 15.3608V1.76019C163.108 1.16673 163.664 0.684814 164.349 0.684814H165.321C166.006 0.684814 166.562 1.16673 166.562 1.76019V15.3608C166.562 15.9542 166.006 16.4361 165.321 16.4361Z" fill="#AE0F0A"/>
</g>
</svg>
