<svg width="138" height="16" viewBox="0 0 138 16" fill="none" xmlns="http://www.w3.org/2000/svg">
<g id="Group 1123">
<path id="Vector" fill-rule="evenodd" clip-rule="evenodd" d="M49.1721 15.9185H48.1994C47.5149 15.9185 46.9591 15.4366 46.9591 14.8432V1.24261C46.9591 0.649148 47.5149 0.167236 48.1994 0.167236H49.1721C49.8566 0.167236 50.4124 0.649148 50.4124 1.24261V14.8432C50.4124 15.4366 49.8566 15.9185 49.1721 15.9185Z" fill="#FFF3C3"/>
<path id="Vector_2" fill-rule="evenodd" clip-rule="evenodd" d="M43.3826 15.9185H42.4099C41.7254 15.9185 41.1696 15.4366 41.1696 14.8432V1.24261C41.1696 0.649148 41.7254 0.167236 42.4099 0.167236H43.3826C44.067 0.167236 44.6229 0.649148 44.6229 1.24261V14.8432C44.6229 15.4366 44.067 15.9185 43.3826 15.9185Z" fill="#FFF3C3"/>
<path id="Vector_3" fill-rule="evenodd" clip-rule="evenodd" d="M37.5929 15.9185H36.6202C35.9357 15.9185 35.3799 15.4366 35.3799 14.8432V1.24261C35.3799 0.649148 35.9357 0.167236 36.6202 0.167236H37.5929C38.2774 0.167236 38.8332 0.649148 38.8332 1.24261V14.8432C38.8332 15.4366 38.2774 15.9185 37.5929 15.9185Z" fill="#FFF3C3"/>
<path id="Vector_4" fill-rule="evenodd" clip-rule="evenodd" d="M31.8033 15.9185H30.8306C30.1462 15.9185 29.5903 15.4366 29.5903 14.8432V1.24261C29.5903 0.649148 30.1462 0.167236 30.8306 0.167236H31.8033C32.4878 0.167236 33.0436 0.649148 33.0436 1.24261V14.8432C33.0436 15.4366 32.4878 15.9185 31.8033 15.9185Z" fill="#FFF3C3" fill-opacity="0.7"/>
<path id="Vector_5" fill-rule="evenodd" clip-rule="evenodd" d="M26.0135 15.9185H25.0408C24.3564 15.9185 23.8005 15.4366 23.8005 14.8432V1.24261C23.8005 0.649148 24.3564 0.167236 25.0408 0.167236H26.0135C26.698 0.167236 27.2538 0.649148 27.2538 1.24261V14.8432C27.2538 15.4366 26.698 15.9185 26.0135 15.9185Z" fill="#FFF3C3" fill-opacity="0.6"/>
<path id="Vector_6" fill-rule="evenodd" clip-rule="evenodd" d="M20.2241 15.9185H19.2514C18.5669 15.9185 18.0111 15.4366 18.0111 14.8432V1.24261C18.0111 0.649148 18.5669 0.167236 19.2514 0.167236H20.2241C20.9086 0.167236 21.4644 0.649148 21.4644 1.24261V14.8432C21.4644 15.4366 20.9086 15.9185 20.2241 15.9185Z" fill="#FFF3C3" fill-opacity="0.5"/>
<path id="Vector_7" fill-rule="evenodd" clip-rule="evenodd" d="M14.4343 15.9185H13.4616C12.7771 15.9185 12.2213 15.4366 12.2213 14.8432V1.24261C12.2213 0.649148 12.7771 0.167236 13.4616 0.167236H14.4343C15.1188 0.167236 15.6746 0.649148 15.6746 1.24261V14.8432C15.6746 15.4366 15.1188 15.9185 14.4343 15.9185Z" fill="#FFF3C3" fill-opacity="0.4"/>
<path id="Vector_8" fill-rule="evenodd" clip-rule="evenodd" d="M8.64488 15.9185H7.67219C6.98771 15.9185 6.43188 15.4366 6.43188 14.8432V1.24261C6.43188 0.649148 6.98771 0.167236 7.67219 0.167236H8.64488C9.32937 0.167236 9.88519 0.649148 9.88519 1.24261V14.8432C9.88519 15.4366 9.32937 15.9185 8.64488 15.9185Z" fill="#FFF3C3" fill-opacity="0.3"/>
<path id="Vector_9" fill-rule="evenodd" clip-rule="evenodd" d="M2.9038 15.9185H1.93111C1.24662 15.9185 0.690796 15.4366 0.690796 14.8432V1.24261C0.690796 0.649148 1.24662 0.167236 1.93111 0.167236H2.9038C3.58828 0.167236 4.1441 0.649148 4.1441 1.24261V14.8432C4.1441 15.4366 3.58828 15.9185 2.9038 15.9185Z" fill="#FFF3C3" fill-opacity="0.2"/>
<path id="Vector_10" fill-rule="evenodd" clip-rule="evenodd" d="M129.391 15.4588L137.229 8.66303C137.713 8.2436 137.713 7.56089 137.229 7.14591L129.391 0.350092C129.03 0.0377435 128.516 -0.0514941 128.042 0.118067C127.569 0.287627 127.275 0.666902 127.275 1.10865V14.7003C127.275 15.142 127.569 15.5213 128.042 15.6909C128.516 15.8604 129.03 15.7712 129.391 15.4588Z" fill="#D76513"/>
<path id="Vector_11" fill-rule="evenodd" clip-rule="evenodd" d="M54.9518 15.9185H53.9791C53.2946 15.9185 52.7388 15.4366 52.7388 14.8432V1.24261C52.7388 0.649148 53.2946 0.167236 53.9791 0.167236H54.9518C55.6363 0.167236 56.1921 0.649148 56.1921 1.24261V14.8432C56.1921 15.4366 55.6363 15.9185 54.9518 15.9185Z" fill="#FEE8B5"/>
<path id="Vector_12" fill-rule="evenodd" clip-rule="evenodd" d="M60.7361 15.9185H59.7634C59.0789 15.9185 58.5231 15.4366 58.5231 14.8432V1.24261C58.5231 0.649148 59.0789 0.167236 59.7634 0.167236H60.7361C61.4206 0.167236 61.9764 0.649148 61.9764 1.24261V14.8432C61.9764 15.4366 61.4206 15.9185 60.7361 15.9185Z" fill="#FBDEA7"/>
<path id="Vector_13" fill-rule="evenodd" clip-rule="evenodd" d="M66.5157 15.9185H65.543C64.8586 15.9185 64.3027 15.4366 64.3027 14.8432V1.24261C64.3027 0.649148 64.8586 0.167236 65.543 0.167236H66.5157C67.2002 0.167236 67.756 0.649148 67.756 1.24261V14.8432C67.756 15.4366 67.2002 15.9185 66.5157 15.9185Z" fill="#FAD798"/>
<path id="Vector_14" fill-rule="evenodd" clip-rule="evenodd" d="M72.2953 15.9185H71.3226C70.6381 15.9185 70.0823 15.4366 70.0823 14.8432V1.24261C70.0823 0.649148 70.6381 0.167236 71.3226 0.167236H72.2953C72.9798 0.167236 73.5356 0.649148 73.5356 1.24261V14.8432C73.5356 15.4366 72.9798 15.9185 72.2953 15.9185Z" fill="#F7CA8A"/>
<path id="Vector_15" fill-rule="evenodd" clip-rule="evenodd" d="M78.0749 15.9185H77.1022C76.4178 15.9185 75.8619 15.4366 75.8619 14.8432V1.24261C75.8619 0.649148 76.4178 0.167236 77.1022 0.167236H78.0749C78.7594 0.167236 79.3152 0.649148 79.3152 1.24261V14.8432C79.3152 15.4366 78.7594 15.9185 78.0749 15.9185Z" fill="#F2BE7B"/>
<path id="Vector_16" fill-rule="evenodd" clip-rule="evenodd" d="M83.8546 15.9185H82.8819C82.1974 15.9185 81.6416 15.4366 81.6416 14.8432V1.24261C81.6416 0.649148 82.1974 0.167236 82.8819 0.167236H83.8546C84.5391 0.167236 85.0949 0.649148 85.0949 1.24261V14.8432C85.0949 15.4366 84.5391 15.9185 83.8546 15.9185Z" fill="#EFB46C"/>
<path id="Vector_17" fill-rule="evenodd" clip-rule="evenodd" d="M89.639 15.9185H88.6663C87.9818 15.9185 87.426 15.4366 87.426 14.8432V1.24261C87.426 0.649148 87.9818 0.167236 88.6663 0.167236H89.639C90.3235 0.167236 90.8793 0.649148 90.8793 1.24261V14.8432C90.8793 15.4366 90.3235 15.9185 89.639 15.9185Z" fill="#ECAB5F"/>
<path id="Vector_18" fill-rule="evenodd" clip-rule="evenodd" d="M95.4186 15.9185H94.4459C93.7614 15.9185 93.2056 15.4366 93.2056 14.8432V1.24261C93.2056 0.649148 93.7614 0.167236 94.4459 0.167236H95.4186C96.1031 0.167236 96.6589 0.649148 96.6589 1.24261V14.8432C96.6589 15.4366 96.1031 15.9185 95.4186 15.9185Z" fill="#E89D52"/>
<path id="Vector_19" fill-rule="evenodd" clip-rule="evenodd" d="M101.198 15.9185H100.225C99.5407 15.9185 98.9849 15.4366 98.9849 14.8432V1.24261C98.9849 0.649148 99.5407 0.167236 100.225 0.167236H101.198C101.882 0.167236 102.438 0.649148 102.438 1.24261V14.8432C102.438 15.4366 101.882 15.9185 101.198 15.9185Z" fill="#E69343"/>
<path id="Vector_20" fill-rule="evenodd" clip-rule="evenodd" d="M106.978 15.9185H106.005C105.32 15.9185 104.765 15.4366 104.765 14.8432V1.24261C104.765 0.649148 105.32 0.167236 106.005 0.167236H106.978C107.662 0.167236 108.218 0.649148 108.218 1.24261V14.8432C108.218 15.4366 107.662 15.9185 106.978 15.9185Z" fill="#E38737"/>
<path id="Vector_21" fill-rule="evenodd" clip-rule="evenodd" d="M112.757 15.9185H111.784C111.1 15.9185 110.544 15.4366 110.544 14.8432V1.24261C110.544 0.649148 111.1 0.167236 111.784 0.167236H112.757C113.442 0.167236 113.997 0.649148 113.997 1.24261V14.8432C113.997 15.4366 113.442 15.9185 112.757 15.9185Z" fill="#E07E2C"/>
<path id="Vector_22" fill-rule="evenodd" clip-rule="evenodd" d="M118.542 15.9185H117.569C116.885 15.9185 116.329 15.4366 116.329 14.8432V1.24261C116.329 0.649148 116.885 0.167236 117.569 0.167236H118.542C119.226 0.167236 119.782 0.649148 119.782 1.24261V14.8432C119.782 15.4366 119.226 15.9185 118.542 15.9185Z" fill="#DB711E"/>
<path id="Vector_23" fill-rule="evenodd" clip-rule="evenodd" d="M124.321 15.9185H123.349C122.664 15.9185 122.108 15.4366 122.108 14.8432V1.24261C122.108 0.649148 122.664 0.167236 123.349 0.167236H124.321C125.006 0.167236 125.562 0.649148 125.562 1.24261V14.8432C125.562 15.4366 125.006 15.9185 124.321 15.9185Z" fill="#D76513"/>
</g>
</svg>
