<svg width="161" height="17" viewBox="0 0 161 17" fill="none" xmlns="http://www.w3.org/2000/svg">
<g id="Group 1124">
<path id="Vector" fill-rule="evenodd" clip-rule="evenodd" d="M60.6131 16.1773H59.6405C58.956 16.1773 58.4001 15.6954 58.4001 15.102V1.5014C58.4001 0.907937 58.956 0.426025 59.6405 0.426025H60.6131C61.2976 0.426025 61.8535 0.907937 61.8535 1.5014V15.102C61.8535 15.6954 61.2976 16.1773 60.6131 16.1773Z" fill="#FCD9BD"/>
<path id="Vector_2" fill-rule="evenodd" clip-rule="evenodd" d="M54.8033 16.1773H53.8306C53.1462 16.1773 52.5903 15.6954 52.5903 15.102V1.5014C52.5903 0.907937 53.1462 0.426025 53.8306 0.426025H54.8033C55.4878 0.426025 56.0436 0.907937 56.0436 1.5014V15.102C56.0436 15.6954 55.4878 16.1773 54.8033 16.1773Z" fill="#FCD9BD"/>
<path id="Vector_3" fill-rule="evenodd" clip-rule="evenodd" d="M48.9935 16.1773H48.0208C47.3363 16.1773 46.7805 15.6954 46.7805 15.102V1.5014C46.7805 0.907937 47.3363 0.426025 48.0208 0.426025H48.9935C49.678 0.426025 50.2338 0.907937 50.2338 1.5014V15.102C50.2338 15.6954 49.678 16.1773 48.9935 16.1773Z" fill="#FCD9BD"/>
<path id="Vector_4" fill-rule="evenodd" clip-rule="evenodd" d="M43.1837 16.1773H42.211C41.5265 16.1773 40.9707 15.6954 40.9707 15.102V1.5014C40.9707 0.907937 41.5265 0.426025 42.211 0.426025H43.1837C43.8682 0.426025 44.424 0.907937 44.424 1.5014V15.102C44.424 15.6954 43.8682 16.1773 43.1837 16.1773Z" fill="#FCD9BD" fill-opacity="0.9"/>
<path id="Vector_5" fill-rule="evenodd" clip-rule="evenodd" d="M37.3739 16.1773H36.4012C35.7167 16.1773 35.1609 15.6954 35.1609 15.102V1.5014C35.1609 0.907937 35.7167 0.426025 36.4012 0.426025H37.3739C38.0584 0.426025 38.6142 0.907937 38.6142 1.5014V15.102C38.6142 15.6954 38.0584 16.1773 37.3739 16.1773Z" fill="#FCD9BD" fill-opacity="0.8"/>
<path id="Vector_6" fill-rule="evenodd" clip-rule="evenodd" d="M31.5641 16.1773H30.5914C29.9069 16.1773 29.3511 15.6954 29.3511 15.102V1.5014C29.3511 0.907937 29.9069 0.426025 30.5914 0.426025H31.5641C32.2486 0.426025 32.8044 0.907937 32.8044 1.5014V15.102C32.8044 15.6954 32.2486 16.1773 31.5641 16.1773Z" fill="#FCD9BD" fill-opacity="0.7"/>
<path id="Vector_7" fill-rule="evenodd" clip-rule="evenodd" d="M25.7544 16.1773H24.7817C24.0972 16.1773 23.5414 15.6954 23.5414 15.102V1.5014C23.5414 0.907937 24.0972 0.426025 24.7817 0.426025H25.7544C26.4389 0.426025 26.9947 0.907937 26.9947 1.5014V15.102C26.9947 15.6954 26.4389 16.1773 25.7544 16.1773Z" fill="#FCD9BD" fill-opacity="0.6"/>
<path id="Vector_8" fill-rule="evenodd" clip-rule="evenodd" d="M19.9446 16.1773H18.9719C18.2874 16.1773 17.7316 15.6954 17.7316 15.102V1.5014C17.7316 0.907937 18.2874 0.426025 18.9719 0.426025H19.9446C20.6291 0.426025 21.1849 0.907937 21.1849 1.5014V15.102C21.1849 15.6954 20.6291 16.1773 19.9446 16.1773Z" fill="#FCD9BD" fill-opacity="0.5"/>
<path id="Vector_9" fill-rule="evenodd" clip-rule="evenodd" d="M14.3448 16.1773H13.3721C12.6877 16.1773 12.1318 15.6954 12.1318 15.102V1.5014C12.1318 0.907937 12.6877 0.426025 13.3721 0.426025H14.3448C15.0293 0.426025 15.5851 0.907937 15.5851 1.5014V15.102C15.5851 15.6954 15.0293 16.1773 14.3448 16.1773Z" fill="#FCD9BD" fill-opacity="0.4"/>
<path id="Vector_10" fill-rule="evenodd" clip-rule="evenodd" d="M8.74523 16.1773H7.77254C7.08805 16.1773 6.53223 15.6954 6.53223 15.102V1.5014C6.53223 0.907937 7.08805 0.426025 7.77254 0.426025H8.74523C9.42971 0.426025 9.98553 0.907937 9.98553 1.5014V15.102C9.98553 15.6954 9.42971 16.1773 8.74523 16.1773Z" fill="#FCD9BD" fill-opacity="0.3"/>
<path id="Vector_11" fill-rule="evenodd" clip-rule="evenodd" d="M3.14562 16.1773H2.17293C1.48844 16.1773 0.932617 15.6954 0.932617 15.102V1.5014C0.932617 0.907937 1.48844 0.426025 2.17293 0.426025H3.14562C3.8301 0.426025 4.38592 0.907937 4.38592 1.5014V15.102C4.38592 15.6954 3.8301 16.1773 3.14562 16.1773Z" fill="#FCD9BD" fill-opacity="0.2"/>
<path id="Vector_12" fill-rule="evenodd" clip-rule="evenodd" d="M152.391 15.7176L160.229 8.92183C160.713 8.50239 160.713 7.81968 160.229 7.4047L152.391 0.608886C152.03 0.296538 151.516 0.207293 151.042 0.376854C150.569 0.546415 150.275 0.925696 150.275 1.36745V14.9591C150.275 15.4008 150.569 15.7801 151.042 15.9497C151.516 16.1192 152.03 16.03 152.391 15.7176Z" fill="#CE1316"/>
<path id="Vector_13" fill-rule="evenodd" clip-rule="evenodd" d="M66.3924 16.1773H65.4198C64.7353 16.1773 64.1794 15.6954 64.1794 15.102V1.5014C64.1794 0.907937 64.7353 0.426025 65.4198 0.426025H66.3924C67.0769 0.426025 67.6328 0.907937 67.6328 1.5014V15.102C67.6328 15.6954 67.0769 16.1773 66.3924 16.1773Z" fill="#F9CFAF"/>
<path id="Vector_14" fill-rule="evenodd" clip-rule="evenodd" d="M72.1721 16.1773H71.1994C70.5149 16.1773 69.9591 15.6954 69.9591 15.102V1.5014C69.9591 0.907937 70.5149 0.426025 71.1994 0.426025H72.1721C72.8566 0.426025 73.4124 0.907937 73.4124 1.5014V15.102C73.4124 15.6954 72.8566 16.1773 72.1721 16.1773Z" fill="#F8C3A1"/>
<path id="Vector_15" fill-rule="evenodd" clip-rule="evenodd" d="M77.9518 16.1773H76.9791C76.2946 16.1773 75.7388 15.6954 75.7388 15.102V1.5014C75.7388 0.907937 76.2946 0.426025 76.9791 0.426025H77.9518C78.6363 0.426025 79.1921 0.907937 79.1921 1.5014V15.102C79.1921 15.6954 78.6363 16.1773 77.9518 16.1773Z" fill="#F3B793"/>
<path id="Vector_16" fill-rule="evenodd" clip-rule="evenodd" d="M83.7361 16.1773H82.7634C82.0789 16.1773 81.5231 15.6954 81.5231 15.102V1.5014C81.5231 0.907937 82.0789 0.426025 82.7634 0.426025H83.7361C84.4206 0.426025 84.9764 0.907937 84.9764 1.5014V15.102C84.9764 15.6954 84.4206 16.1773 83.7361 16.1773Z" fill="#F0AC87"/>
<path id="Vector_17" fill-rule="evenodd" clip-rule="evenodd" d="M89.5157 16.1773H88.543C87.8586 16.1773 87.3027 15.6954 87.3027 15.102V1.5014C87.3027 0.907937 87.8586 0.426025 88.543 0.426025H89.5157C90.2002 0.426025 90.756 0.907937 90.756 1.5014V15.102C90.756 15.6954 90.2002 16.1773 89.5157 16.1773Z" fill="#EA9D79"/>
<path id="Vector_18" fill-rule="evenodd" clip-rule="evenodd" d="M95.2953 16.1773H94.3226C93.6381 16.1773 93.0823 15.6954 93.0823 15.102V1.5014C93.0823 0.907937 93.6381 0.426025 94.3226 0.426025H95.2953C95.9798 0.426025 96.5356 0.907937 96.5356 1.5014V15.102C96.5356 15.6954 95.9798 16.1773 95.2953 16.1773Z" fill="#E9926D"/>
<path id="Vector_19" fill-rule="evenodd" clip-rule="evenodd" d="M101.075 16.1773H100.102C99.4178 16.1773 98.8619 15.6954 98.8619 15.102V1.5014C98.8619 0.907937 99.4178 0.426025 100.102 0.426025H101.075C101.759 0.426025 102.315 0.907937 102.315 1.5014V15.102C102.315 15.6954 101.759 16.1773 101.075 16.1773Z" fill="#E68460"/>
<path id="Vector_20" fill-rule="evenodd" clip-rule="evenodd" d="M106.855 16.1773H105.882C105.197 16.1773 104.642 15.6954 104.642 15.102V1.5014C104.642 0.907937 105.197 0.426025 105.882 0.426025H106.855C107.539 0.426025 108.095 0.907937 108.095 1.5014V15.102C108.095 15.6954 107.539 16.1773 106.855 16.1773Z" fill="#E47954"/>
<path id="Vector_21" fill-rule="evenodd" clip-rule="evenodd" d="M112.639 16.1773H111.666C110.982 16.1773 110.426 15.6954 110.426 15.102V1.5014C110.426 0.907937 110.982 0.426025 111.666 0.426025H112.639C113.324 0.426025 113.879 0.907937 113.879 1.5014V15.102C113.879 15.6954 113.324 16.1773 112.639 16.1773Z" fill="#DF6D4A"/>
<path id="Vector_22" fill-rule="evenodd" clip-rule="evenodd" d="M118.419 16.1773H117.446C116.761 16.1773 116.206 15.6954 116.206 15.102V1.5014C116.206 0.907937 116.761 0.426025 117.446 0.426025H118.419C119.103 0.426025 119.659 0.907937 119.659 1.5014V15.102C119.659 15.6954 119.103 16.1773 118.419 16.1773Z" fill="#DC5F3F"/>
<path id="Vector_23" fill-rule="evenodd" clip-rule="evenodd" d="M124.198 16.1773H123.225C122.541 16.1773 121.985 15.6954 121.985 15.102V1.5014C121.985 0.907937 122.541 0.426025 123.225 0.426025H124.198C124.882 0.426025 125.438 0.907937 125.438 1.5014V15.102C125.438 15.6954 124.882 16.1773 124.198 16.1773Z" fill="#DA5234"/>
<path id="Vector_24" fill-rule="evenodd" clip-rule="evenodd" d="M129.978 16.1773H129.005C128.32 16.1773 127.765 15.6954 127.765 15.102V1.5014C127.765 0.907937 128.32 0.426025 129.005 0.426025H129.978C130.662 0.426025 131.218 0.907937 131.218 1.5014V15.102C131.218 15.6954 130.662 16.1773 129.978 16.1773Z" fill="#D5432C"/>
<path id="Vector_25" fill-rule="evenodd" clip-rule="evenodd" d="M135.757 16.1773H134.784C134.1 16.1773 133.544 15.6954 133.544 15.102V1.5014C133.544 0.907937 134.1 0.426025 134.784 0.426025H135.757C136.442 0.426025 136.997 0.907937 136.997 1.5014V15.102C136.997 15.6954 136.442 16.1773 135.757 16.1773Z" fill="#D23623"/>
<path id="Vector_26" fill-rule="evenodd" clip-rule="evenodd" d="M141.542 16.1773H140.569C139.885 16.1773 139.329 15.6954 139.329 15.102V1.5014C139.329 0.907937 139.885 0.426025 140.569 0.426025H141.542C142.226 0.426025 142.782 0.907937 142.782 1.5014V15.102C142.782 15.6954 142.226 16.1773 141.542 16.1773Z" fill="#D1261D"/>
<path id="Vector_27" fill-rule="evenodd" clip-rule="evenodd" d="M147.321 16.1773H146.349C145.664 16.1773 145.108 15.6954 145.108 15.102V1.5014C145.108 0.907937 145.664 0.426025 146.349 0.426025H147.321C148.006 0.426025 148.562 0.907937 148.562 1.5014V15.102C148.562 15.6954 148.006 16.1773 147.321 16.1773Z" fill="#CE1316"/>
</g>
</svg>
