<svg width="34" height="17" viewBox="0 0 34 17" fill="none" xmlns="http://www.w3.org/2000/svg">
<g id="Group 1119">
<path id="Vector" fill-rule="evenodd" clip-rule="evenodd" d="M25.0425 16.1493L32.8806 9.35347C33.3644 8.93403 33.3644 8.25132 32.8806 7.83634L25.0425 1.04053C24.6822 0.728177 24.1676 0.638934 23.6941 0.808495C23.2206 0.978056 22.9272 1.35734 22.9272 1.79909V15.3907C22.9272 15.8325 23.2206 16.2118 23.6941 16.3813C24.1676 16.5509 24.6822 16.4616 25.0425 16.1493Z" fill="#008738"/>
<path id="Vector_2" fill-rule="evenodd" clip-rule="evenodd" d="M2.62913 16.6094H1.65644C0.971954 16.6094 0.416138 16.1275 0.416138 15.534V1.93792C0.416138 1.34446 0.971954 0.862549 1.65644 0.862549H2.62913C3.31361 0.862549 3.86944 1.34446 3.86944 1.93792V15.5385C3.86944 16.1319 3.31361 16.6139 2.62913 16.6139V16.6094Z" fill="#9BBF87"/>
<path id="Vector_3" fill-rule="evenodd" clip-rule="evenodd" d="M8.4088 16.6094H7.43611C6.75163 16.6094 6.1958 16.1275 6.1958 15.534V1.93792C6.1958 1.34446 6.75163 0.862549 7.43611 0.862549H8.4088C9.09329 0.862549 9.6491 1.34446 9.6491 1.93792V15.5385C9.6491 16.1319 9.09329 16.6139 8.4088 16.6139V16.6094Z" fill="#76AA67"/>
<path id="Vector_4" fill-rule="evenodd" clip-rule="evenodd" d="M14.1935 16.6094H13.2208C12.5363 16.6094 11.9805 16.1275 11.9805 15.534V1.93792C11.9805 1.34446 12.5363 0.862549 13.2208 0.862549H14.1935C14.8779 0.862549 15.4338 1.34446 15.4338 1.93792V15.5385C15.4338 16.1319 14.8779 16.6139 14.1935 16.6139V16.6094Z" fill="#4A984D"/>
<path id="Vector_5" fill-rule="evenodd" clip-rule="evenodd" d="M19.973 16.6094H19.0003C18.3158 16.6094 17.76 16.1275 17.76 15.534V1.93792C17.76 1.34446 18.3158 0.862549 19.0003 0.862549H19.973C20.6575 0.862549 21.2133 1.34446 21.2133 1.93792V15.5385C21.2133 16.1319 20.6575 16.6139 19.973 16.6139V16.6094Z" fill="#008738"/>
</g>
</svg>
