<svg width="103" height="17" viewBox="0 0 103 17" fill="none" xmlns="http://www.w3.org/2000/svg">
<g id="Group 1121">
<path id="Vector" fill-rule="evenodd" clip-rule="evenodd" d="M37.2953 16.4058H36.3226C35.6381 16.4058 35.0823 15.9239 35.0823 15.3305V1.72991C35.0823 1.13645 35.6381 0.654541 36.3226 0.654541H37.2953C37.9798 0.654541 38.5356 1.13645 38.5356 1.72991V15.3305C38.5356 15.9239 37.9798 16.4058 37.2953 16.4058Z" fill="#FEF9CF"/>
<path id="Vector_2" fill-rule="evenodd" clip-rule="evenodd" d="M31.5157 16.4058H30.543C29.8586 16.4058 29.3027 15.9239 29.3027 15.3305V1.72991C29.3027 1.13645 29.8586 0.654541 30.543 0.654541H31.5157C32.2002 0.654541 32.756 1.13645 32.756 1.72991V15.3305C32.756 15.9239 32.2002 16.4058 31.5157 16.4058Z" fill="#FEF9CF"/>
<path id="Vector_3" fill-rule="evenodd" clip-rule="evenodd" d="M25.7364 16.4058H24.7637C24.0793 16.4058 23.5234 15.9239 23.5234 15.3305V1.72991C23.5234 1.13645 24.0793 0.654541 24.7637 0.654541H25.7364C26.4209 0.654541 26.9767 1.13645 26.9767 1.72991V15.3305C26.9767 15.9239 26.4209 16.4058 25.7364 16.4058Z" fill="#FEF9CF"/>
<path id="Vector_4" fill-rule="evenodd" clip-rule="evenodd" d="M19.9568 16.4058H18.9841C18.2996 16.4058 17.7438 15.9239 17.7438 15.3305V1.72991C17.7438 1.13645 18.2996 0.654541 18.9841 0.654541H19.9568C20.6413 0.654541 21.1971 1.13645 21.1971 1.72991V15.3305C21.1971 15.9239 20.6413 16.4058 19.9568 16.4058Z" fill="#FEF9CF" fill-opacity="0.5"/>
<path id="Vector_5" fill-rule="evenodd" clip-rule="evenodd" d="M14.1775 16.4058H13.2048C12.5203 16.4058 11.9645 15.9239 11.9645 15.3305V1.72991C11.9645 1.13645 12.5203 0.654541 13.2048 0.654541H14.1775C14.862 0.654541 15.4178 1.13645 15.4178 1.72991V15.3305C15.4178 15.9239 14.862 16.4058 14.1775 16.4058Z" fill="#FEF9CF" fill-opacity="0.4"/>
<path id="Vector_6" fill-rule="evenodd" clip-rule="evenodd" d="M8.39781 16.4058H7.42512C6.74064 16.4058 6.18481 15.9239 6.18481 15.3305V1.72991C6.18481 1.13645 6.74064 0.654541 7.42512 0.654541H8.39781C9.0823 0.654541 9.63812 1.13645 9.63812 1.72991V15.3305C9.63812 15.9239 9.0823 16.4058 8.39781 16.4058Z" fill="#FEF9CF" fill-opacity="0.3"/>
<path id="Vector_7" fill-rule="evenodd" clip-rule="evenodd" d="M2.61852 16.4058H1.64583C0.961342 16.4058 0.405518 15.9239 0.405518 15.3305V1.72991C0.405518 1.13645 0.961342 0.654541 1.64583 0.654541H2.61852C3.303 0.654541 3.85882 1.13645 3.85882 1.72991V15.3305C3.85882 15.9239 3.303 16.4058 2.61852 16.4058Z" fill="#FEF9CF" fill-opacity="0.2"/>
<path id="Vector_8" fill-rule="evenodd" clip-rule="evenodd" d="M94.3906 15.9462L102.229 9.15034C102.713 8.7309 102.713 8.0482 102.229 7.63322L94.3906 0.837399C94.0303 0.525051 93.5157 0.43581 93.0422 0.60537C92.5687 0.774931 92.2754 1.15421 92.2754 1.59596V15.1876C92.2754 15.6293 92.5687 16.0086 93.0422 16.1782C93.5157 16.3477 94.0303 16.2585 94.3906 15.9462Z" fill="#9BB420"/>
<path id="Vector_9" fill-rule="evenodd" clip-rule="evenodd" d="M43.0749 16.4058H42.1022C41.4178 16.4058 40.8619 15.9239 40.8619 15.3305V1.72991C40.8619 1.13645 41.4178 0.654541 42.1022 0.654541H43.0749C43.7594 0.654541 44.3152 1.13645 44.3152 1.72991V15.3305C44.3152 15.9239 43.7594 16.4058 43.0749 16.4058Z" fill="#F4F1BE"/>
<path id="Vector_10" fill-rule="evenodd" clip-rule="evenodd" d="M48.8546 16.4058H47.8819C47.1974 16.4058 46.6416 15.9239 46.6416 15.3305V1.72991C46.6416 1.13645 47.1974 0.654541 47.8819 0.654541H48.8546C49.5391 0.654541 50.0949 1.13645 50.0949 1.72991V15.3305C50.0949 15.9239 49.5391 16.4058 48.8546 16.4058Z" fill="#EAE8AB"/>
<path id="Vector_11" fill-rule="evenodd" clip-rule="evenodd" d="M54.639 16.4058H53.6663C52.9818 16.4058 52.426 15.9239 52.426 15.3305V1.72991C52.426 1.13645 52.9818 0.654541 53.6663 0.654541H54.639C55.3235 0.654541 55.8793 1.13645 55.8793 1.72991V15.3305C55.8793 15.9239 55.3235 16.4058 54.639 16.4058Z" fill="#E0E197"/>
<path id="Vector_12" fill-rule="evenodd" clip-rule="evenodd" d="M60.4186 16.4058H59.4459C58.7614 16.4058 58.2056 15.9239 58.2056 15.3305V1.72991C58.2056 1.13645 58.7614 0.654541 59.4459 0.654541H60.4186C61.1031 0.654541 61.6589 1.13645 61.6589 1.72991V15.3305C61.6589 15.9239 61.1031 16.4058 60.4186 16.4058Z" fill="#D6DA84"/>
<path id="Vector_13" fill-rule="evenodd" clip-rule="evenodd" d="M66.1979 16.4058H65.2252C64.5407 16.4058 63.9849 15.9239 63.9849 15.3305V1.72991C63.9849 1.13645 64.5407 0.654541 65.2252 0.654541H66.1979C66.8823 0.654541 67.4382 1.13645 67.4382 1.72991V15.3305C67.4382 15.9239 66.8823 16.4058 66.1979 16.4058Z" fill="#C9D070"/>
<path id="Vector_14" fill-rule="evenodd" clip-rule="evenodd" d="M71.9775 16.4058H71.0048C70.3203 16.4058 69.7645 15.9239 69.7645 15.3305V1.72991C69.7645 1.13645 70.3203 0.654541 71.0048 0.654541H71.9775C72.662 0.654541 73.2178 1.13645 73.2178 1.72991V15.3305C73.2178 15.9239 72.662 16.4058 71.9775 16.4058Z" fill="#BEC95D"/>
<path id="Vector_15" fill-rule="evenodd" clip-rule="evenodd" d="M77.7572 16.4058H76.7845C76.1 16.4058 75.5442 15.9239 75.5442 15.3305V1.72991C75.5442 1.13645 76.1 0.654541 76.7845 0.654541H77.7572C78.4417 0.654541 78.9975 1.13645 78.9975 1.72991V15.3305C78.9975 15.9239 78.4417 16.4058 77.7572 16.4058Z" fill="#B3C247"/>
<path id="Vector_16" fill-rule="evenodd" clip-rule="evenodd" d="M83.5418 16.4058H82.5692C81.8847 16.4058 81.3289 15.9239 81.3289 15.3305V1.72991C81.3289 1.13645 81.8847 0.654541 82.5692 0.654541H83.5418C84.2263 0.654541 84.7822 1.13645 84.7822 1.72991V15.3305C84.7822 15.9239 84.2263 16.4058 83.5418 16.4058Z" fill="#A7BA35"/>
<path id="Vector_17" fill-rule="evenodd" clip-rule="evenodd" d="M89.3214 16.4058H88.3487C87.6642 16.4058 87.1084 15.9239 87.1084 15.3305V1.72991C87.1084 1.13645 87.6642 0.654541 88.3487 0.654541H89.3214C90.0059 0.654541 90.5617 1.13645 90.5617 1.72991V15.3305C90.5617 15.9239 90.0059 16.4058 89.3214 16.4058Z" fill="#9BB420"/>
</g>
</svg>
