<svg width="121" height="17" viewBox="0 0 121 17" fill="none" xmlns="http://www.w3.org/2000/svg">
<g id="Group 1122">
<path id="Vector" fill-rule="evenodd" clip-rule="evenodd" d="M43.7361 16.6646H42.7634C42.0789 16.6646 41.5231 16.1827 41.5231 15.5893V1.9887C41.5231 1.39524 42.0789 0.91333 42.7634 0.91333H43.7361C44.4206 0.91333 44.9764 1.39524 44.9764 1.9887V15.5893C44.9764 16.1827 44.4206 16.6646 43.7361 16.6646Z" fill="#FEF8C9"/>
<path id="Vector_2" fill-rule="evenodd" clip-rule="evenodd" d="M37.9518 16.6646H36.9791C36.2946 16.6646 35.7388 16.1827 35.7388 15.5893V1.9887C35.7388 1.39524 36.2946 0.91333 36.9791 0.91333H37.9518C38.6363 0.91333 39.1921 1.39524 39.1921 1.9887V15.5893C39.1921 16.1827 38.6363 16.6646 37.9518 16.6646Z" fill="#FEF8C9"/>
<path id="Vector_3" fill-rule="evenodd" clip-rule="evenodd" d="M32.167 16.6646H31.1943C30.5098 16.6646 29.954 16.1827 29.954 15.5893V1.9887C29.954 1.39524 30.5098 0.91333 31.1943 0.91333H32.167C32.8515 0.91333 33.4073 1.39524 33.4073 1.9887V15.5893C33.4073 16.1827 32.8515 16.6646 32.167 16.6646Z" fill="#FEF8C9"/>
<path id="Vector_4" fill-rule="evenodd" clip-rule="evenodd" d="M26.3826 16.6646H25.4099C24.7254 16.6646 24.1696 16.1827 24.1696 15.5893V1.9887C24.1696 1.39524 24.7254 0.91333 25.4099 0.91333H26.3826C27.067 0.91333 27.6229 1.39524 27.6229 1.9887V15.5893C27.6229 16.1827 27.067 16.6646 26.3826 16.6646Z" fill="#FEF8C9" fill-opacity="0.6"/>
<path id="Vector_5" fill-rule="evenodd" clip-rule="evenodd" d="M20.5979 16.6646H19.6252C18.9407 16.6646 18.3849 16.1827 18.3849 15.5893V1.9887C18.3849 1.39524 18.9407 0.91333 19.6252 0.91333H20.5979C21.2824 0.91333 21.8382 1.39524 21.8382 1.9887V15.5893C21.8382 16.1827 21.2824 16.6646 20.5979 16.6646Z" fill="#FEF8C9" fill-opacity="0.5"/>
<path id="Vector_6" fill-rule="evenodd" clip-rule="evenodd" d="M14.8135 16.6646H13.8408C13.1563 16.6646 12.6005 16.1827 12.6005 15.5893V1.9887C12.6005 1.39524 13.1563 0.91333 13.8408 0.91333H14.8135C15.4979 0.91333 16.0538 1.39524 16.0538 1.9887V15.5893C16.0538 16.1827 15.4979 16.6646 14.8135 16.6646Z" fill="#FEF8C9" fill-opacity="0.4"/>
<path id="Vector_7" fill-rule="evenodd" clip-rule="evenodd" d="M9.0288 16.6646H8.05611C7.37162 16.6646 6.8158 16.1827 6.8158 15.5893V1.9887C6.8158 1.39524 7.37162 0.91333 8.05611 0.91333H9.0288C9.71328 0.91333 10.2691 1.39524 10.2691 1.9887V15.5893C10.2691 16.1827 9.71328 16.6646 9.0288 16.6646Z" fill="#FEF8C9" fill-opacity="0.3"/>
<path id="Vector_8" fill-rule="evenodd" clip-rule="evenodd" d="M3.1837 16.6646H2.21101C1.52653 16.6646 0.970703 16.1827 0.970703 15.5893V1.9887C0.970703 1.39524 1.52653 0.91333 2.21101 0.91333H3.1837C3.86819 0.91333 4.42401 1.39524 4.42401 1.9887V15.5893C4.42401 16.1827 3.86819 16.6646 3.1837 16.6646Z" fill="#FEF8C9" fill-opacity="0.2"/>
<path id="Vector_9" fill-rule="evenodd" clip-rule="evenodd" d="M112.391 16.2049L120.229 9.40913C120.713 8.98969 120.713 8.30698 120.229 7.89201L112.391 1.09619C112.03 0.783842 111.516 0.694598 111.042 0.864159C110.569 1.03372 110.275 1.413 110.275 1.85475V15.4464C110.275 15.8881 110.569 16.2674 111.042 16.437C111.516 16.6065 112.03 16.5173 112.391 16.2049Z" fill="#E5B200"/>
<path id="Vector_10" fill-rule="evenodd" clip-rule="evenodd" d="M49.5157 16.6646H48.543C47.8586 16.6646 47.3027 16.1827 47.3027 15.5893V1.9887C47.3027 1.39524 47.8586 0.91333 48.543 0.91333H49.5157C50.2002 0.91333 50.756 1.39524 50.756 1.9887V15.5893C50.756 16.1827 50.2002 16.6646 49.5157 16.6646Z" fill="#FEF2BB"/>
<path id="Vector_11" fill-rule="evenodd" clip-rule="evenodd" d="M55.2953 16.6646H54.3226C53.6381 16.6646 53.0823 16.1827 53.0823 15.5893V1.9887C53.0823 1.39524 53.6381 0.91333 54.3226 0.91333H55.2953C55.9798 0.91333 56.5356 1.39524 56.5356 1.9887V15.5893C56.5356 16.1827 55.9798 16.6646 55.2953 16.6646Z" fill="#FAECAB"/>
<path id="Vector_12" fill-rule="evenodd" clip-rule="evenodd" d="M61.0749 16.6646H60.1022C59.4178 16.6646 58.8619 16.1827 58.8619 15.5893V1.9887C58.8619 1.39524 59.4178 0.91333 60.1022 0.91333H61.0749C61.7594 0.91333 62.3152 1.39524 62.3152 1.9887V15.5893C62.3152 16.1827 61.7594 16.6646 61.0749 16.6646Z" fill="#F9E69C"/>
<path id="Vector_13" fill-rule="evenodd" clip-rule="evenodd" d="M66.8546 16.6646H65.8819C65.1974 16.6646 64.6416 16.1827 64.6416 15.5893V1.9887C64.6416 1.39524 65.1974 0.91333 65.8819 0.91333H66.8546C67.5391 0.91333 68.0949 1.39524 68.0949 1.9887V15.5893C68.0949 16.1827 67.5391 16.6646 66.8546 16.6646Z" fill="#F7DF8A"/>
<path id="Vector_14" fill-rule="evenodd" clip-rule="evenodd" d="M72.639 16.6646H71.6663C70.9818 16.6646 70.426 16.1827 70.426 15.5893V1.9887C70.426 1.39524 70.9818 0.91333 71.6663 0.91333H72.639C73.3235 0.91333 73.8793 1.39524 73.8793 1.9887V15.5893C73.8793 16.1827 73.3235 16.6646 72.639 16.6646Z" fill="#F5D87A"/>
<path id="Vector_15" fill-rule="evenodd" clip-rule="evenodd" d="M78.4186 16.6646H77.4459C76.7614 16.6646 76.2056 16.1827 76.2056 15.5893V1.9887C76.2056 1.39524 76.7614 0.91333 77.4459 0.91333H78.4186C79.1031 0.91333 79.6589 1.39524 79.6589 1.9887V15.5893C79.6589 16.1827 79.1031 16.6646 78.4186 16.6646Z" fill="#F2D36B"/>
<path id="Vector_16" fill-rule="evenodd" clip-rule="evenodd" d="M84.1979 16.6646H83.2252C82.5407 16.6646 81.9849 16.1827 81.9849 15.5893V1.9887C81.9849 1.39524 82.5407 0.91333 83.2252 0.91333H84.1979C84.8823 0.91333 85.4382 1.39524 85.4382 1.9887V15.5893C85.4382 16.1827 84.8823 16.6646 84.1979 16.6646Z" fill="#F0CC58"/>
<path id="Vector_17" fill-rule="evenodd" clip-rule="evenodd" d="M89.9775 16.6646H89.0048C88.3203 16.6646 87.7645 16.1827 87.7645 15.5893V1.9887C87.7645 1.39524 88.3203 0.91333 89.0048 0.91333H89.9775C90.662 0.91333 91.2178 1.39524 91.2178 1.9887V15.5893C91.2178 16.1827 90.662 16.6646 89.9775 16.6646Z" fill="#EDC546"/>
<path id="Vector_18" fill-rule="evenodd" clip-rule="evenodd" d="M95.7572 16.6646H94.7845C94.1 16.6646 93.5442 16.1827 93.5442 15.5893V1.9887C93.5442 1.39524 94.1 0.91333 94.7845 0.91333H95.7572C96.4417 0.91333 96.9975 1.39524 96.9975 1.9887V15.5893C96.9975 16.1827 96.4417 16.6646 95.7572 16.6646Z" fill="#EABE31"/>
<path id="Vector_19" fill-rule="evenodd" clip-rule="evenodd" d="M101.542 16.6646H100.569C99.8847 16.6646 99.3289 16.1827 99.3289 15.5893V1.9887C99.3289 1.39524 99.8847 0.91333 100.569 0.91333H101.542C102.226 0.91333 102.782 1.39524 102.782 1.9887V15.5893C102.782 16.1827 102.226 16.6646 101.542 16.6646Z" fill="#E8B91C"/>
<path id="Vector_20" fill-rule="evenodd" clip-rule="evenodd" d="M107.321 16.6646H106.349C105.664 16.6646 105.108 16.1827 105.108 15.5893V1.9887C105.108 1.39524 105.664 0.91333 106.349 0.91333H107.321C108.006 0.91333 108.562 1.39524 108.562 1.9887V15.5893C108.562 16.1827 108.006 16.6646 107.321 16.6646Z" fill="#E5B200"/>
</g>
</svg>
