<svg width="86" height="17" viewBox="0 0 86 17" fill="none" xmlns="http://www.w3.org/2000/svg">
<g id="Group 1120">
<path id="Vector" fill-rule="evenodd" clip-rule="evenodd" d="M31.8546 16.1519H30.8819C30.1974 16.1519 29.6416 15.67 29.6416 15.0766V1.47601C29.6416 0.882544 30.1974 0.400635 30.8819 0.400635H31.8546C32.5391 0.400635 33.0949 0.882544 33.0949 1.47601V15.0766C33.0949 15.67 32.5391 16.1519 31.8546 16.1519Z" fill="#EFF2CD"/>
<path id="Vector_2" fill-rule="evenodd" clip-rule="evenodd" d="M26.0801 16.1519H25.1074C24.4229 16.1519 23.8671 15.67 23.8671 15.0766V1.47601C23.8671 0.882544 24.4229 0.400635 25.1074 0.400635H26.0801C26.7646 0.400635 27.3204 0.882544 27.3204 1.47601V15.0766C27.3204 15.67 26.7646 16.1519 26.0801 16.1519Z" fill="#EFF2CD"/>
<path id="Vector_3" fill-rule="evenodd" clip-rule="evenodd" d="M20.3058 16.1519H19.3331C18.6486 16.1519 18.0928 15.67 18.0928 15.0766V1.47601C18.0928 0.882544 18.6486 0.400635 19.3331 0.400635H20.3058C20.9903 0.400635 21.5461 0.882544 21.5461 1.47601V15.0766C21.5461 15.67 20.9903 16.1519 20.3058 16.1519Z" fill="#EFF2CD"/>
<path id="Vector_4" fill-rule="evenodd" clip-rule="evenodd" d="M14.5312 16.1519H13.5585C12.8741 16.1519 12.3182 15.67 12.3182 15.0766V1.47601C12.3182 0.882544 12.8741 0.400635 13.5585 0.400635H14.5312C15.2157 0.400635 15.7715 0.882544 15.7715 1.47601V15.0766C15.7715 15.67 15.2157 16.1519 14.5312 16.1519Z" fill="#EFF2CD" fill-opacity="0.6"/>
<path id="Vector_5" fill-rule="evenodd" clip-rule="evenodd" d="M8.75694 16.1519H7.78426C7.09977 16.1519 6.54395 15.67 6.54395 15.0766V1.47601C6.54395 0.882544 7.09977 0.400635 7.78426 0.400635H8.75694C9.44143 0.400635 9.99725 0.882544 9.99725 1.47601V15.0766C9.99725 15.67 9.44143 16.1519 8.75694 16.1519Z" fill="#EFF2CD" fill-opacity="0.3"/>
<path id="Vector_6" fill-rule="evenodd" clip-rule="evenodd" d="M2.98241 16.1519H2.00972C1.32523 16.1519 0.769409 15.67 0.769409 15.0766V1.47601C0.769409 0.882544 1.32523 0.400635 2.00972 0.400635H2.98241C3.66689 0.400635 4.22271 0.882544 4.22271 1.47601V15.0766C4.22271 15.67 3.66689 16.1519 2.98241 16.1519Z" fill="#EFF2CD" fill-opacity="0.2"/>
<path id="Vector_7" fill-rule="evenodd" clip-rule="evenodd" d="M77.3906 15.6923L85.2287 8.89643C85.7125 8.47699 85.7125 7.79429 85.2287 7.37931L77.3906 0.583494C77.0303 0.271146 76.5157 0.181903 76.0422 0.351464C75.5687 0.521025 75.2754 0.900306 75.2754 1.34206V14.9337C75.2754 15.3754 75.5687 15.7547 76.0422 15.9243C76.5157 16.0938 77.0303 16.0046 77.3906 15.6923Z" fill="#559B33"/>
<path id="Vector_8" fill-rule="evenodd" clip-rule="evenodd" d="M37.639 16.1519H36.6663C35.9818 16.1519 35.426 15.67 35.426 15.0766V1.47601C35.426 0.882544 35.9818 0.400635 36.6663 0.400635H37.639C38.3235 0.400635 38.8793 0.882544 38.8793 1.47601V15.0766C38.8793 15.67 38.3235 16.1519 37.639 16.1519Z" fill="#DDE5B4"/>
<path id="Vector_9" fill-rule="evenodd" clip-rule="evenodd" d="M43.4186 16.1519H42.4459C41.7614 16.1519 41.2056 15.67 41.2056 15.0766V1.47601C41.2056 0.882544 41.7614 0.400635 42.4459 0.400635H43.4186C44.1031 0.400635 44.6589 0.882544 44.6589 1.47601V15.0766C44.6589 15.67 44.1031 16.1519 43.4186 16.1519Z" fill="#CCDA9D"/>
<path id="Vector_10" fill-rule="evenodd" clip-rule="evenodd" d="M49.1979 16.1519H48.2252C47.5407 16.1519 46.9849 15.67 46.9849 15.0766V1.47601C46.9849 0.882544 47.5407 0.400635 48.2252 0.400635H49.1979C49.8823 0.400635 50.4382 0.882544 50.4382 1.47601V15.0766C50.4382 15.67 49.8823 16.1519 49.1979 16.1519Z" fill="#B7CB85"/>
<path id="Vector_11" fill-rule="evenodd" clip-rule="evenodd" d="M54.9775 16.1519H54.0048C53.3203 16.1519 52.7645 15.67 52.7645 15.0766V1.47601C52.7645 0.882544 53.3203 0.400635 54.0048 0.400635H54.9775C55.662 0.400635 56.2178 0.882544 56.2178 1.47601V15.0766C56.2178 15.67 55.662 16.1519 54.9775 16.1519Z" fill="#A1BF6D"/>
<path id="Vector_12" fill-rule="evenodd" clip-rule="evenodd" d="M60.7572 16.1519H59.7845C59.1 16.1519 58.5442 15.67 58.5442 15.0766V1.47601C58.5442 0.882544 59.1 0.400635 59.7845 0.400635H60.7572C61.4417 0.400635 61.9975 0.882544 61.9975 1.47601V15.0766C61.9975 15.67 61.4417 16.1519 60.7572 16.1519Z" fill="#8AB256"/>
<path id="Vector_13" fill-rule="evenodd" clip-rule="evenodd" d="M66.5418 16.1519H65.5692C64.8847 16.1519 64.3289 15.67 64.3289 15.0766V1.47601C64.3289 0.882544 64.8847 0.400635 65.5692 0.400635H66.5418C67.2263 0.400635 67.7822 0.882544 67.7822 1.47601V15.0766C67.7822 15.67 67.2263 16.1519 66.5418 16.1519Z" fill="#71A544"/>
<path id="Vector_14" fill-rule="evenodd" clip-rule="evenodd" d="M72.3214 16.1519H71.3487C70.6642 16.1519 70.1084 15.67 70.1084 15.0766V1.47601C70.1084 0.882544 70.6642 0.400635 71.3487 0.400635H72.3214C73.0059 0.400635 73.5617 0.882544 73.5617 1.47601V15.0766C73.5617 15.67 73.0059 16.1519 72.3214 16.1519Z" fill="#559B33"/>
</g>
</svg>
