<svg width="22" height="28" viewBox="0 0 22 28" fill="none" xmlns="http://www.w3.org/2000/svg">
<path fill-rule="evenodd" clip-rule="evenodd" d="M11.0804 0.921387C16.7433 0.921387 21.3339 5.51204 21.3339 11.1749C21.3339 11.8661 21.2655 12.5414 21.1351 13.1942C20.2301 20.014 11.1343 27.7758 11.1343 27.7758C11.1343 27.7758 3.39365 21.1705 1.4834 14.7927C1.05908 13.6677 0.826904 12.4484 0.826904 11.1749C0.826904 5.51204 5.41756 0.921387 11.0804 0.921387Z" fill="black"/>
<path d="M14.9865 11.1751C14.9865 9.01786 13.2377 7.26904 11.0804 7.26904C8.92314 7.26904 7.17432 9.01786 7.17432 11.1751C7.17432 13.3324 8.92314 15.0812 11.0804 15.0812C13.2377 15.0812 14.9865 13.3324 14.9865 11.1751Z" fill="white"/>
</svg>
