<svg width="105" height="102" viewBox="0 0 105 102" fill="none" xmlns="http://www.w3.org/2000/svg">
<g id="Group 983">
<path id="Vector" d="M5.98618 65.3067L5.16706 62.0339L5.9145 61.8612L6.5186 64.2903L8.22851 63.8634L7.68584 61.6579L8.42305 61.4749L8.97595 63.6805L10.9111 63.213L10.307 60.7838L11.0442 60.6008L11.8531 63.8634L5.98618 65.3067Z" fill="#7CAC3B"/>
<path id="Vector_2" d="M4.42995 57.267L4.19445 54.0857L4.95213 54.0247L5.1262 56.3522L6.8873 56.2201L6.72347 53.9942L7.48116 53.9434L7.65522 56.1591L10.3993 55.9558L10.4607 56.8198L4.42995 57.267Z" fill="#7CAC3B"/>
<path id="Vector_3" d="M8.45389 34.5304L10.7781 36.7563L11.6792 34.5405H8.44365L8.45389 34.5304ZM7.54263 34.6218L7.88051 33.7884L14.4539 33.6868L14.0956 34.5609H12.4471L11.331 37.2848L12.5188 38.4232L12.1809 39.2566L7.54263 34.6218Z" fill="#7CAC3B"/>
<path id="Vector_4" d="M13.2662 25.7588C12.8771 26.0333 12.6826 26.1959 12.4471 26.572C12.1809 26.9785 12.0273 27.5477 12.5597 27.8831C13.5426 28.5031 14.7099 26.1857 16.3891 27.2529C17.4744 27.9441 17.372 29.052 16.7167 30.0683C16.4915 30.4241 16.1638 30.7087 15.8362 30.9729L15.2014 30.4749C15.4676 30.2919 15.8874 29.9464 16.1229 29.5805C16.3891 29.1638 16.5324 28.4421 15.9283 28.0559C14.7918 27.3342 13.7065 29.7024 12.1194 28.7064C11.2184 28.127 11.1877 27.1106 11.7815 26.2061C11.9966 25.8706 12.314 25.5047 12.6621 25.2405L13.2662 25.769V25.7588Z" fill="#7CAC3B"/>
<path id="Vector_5" d="M19.389 22.2016C20.6996 23.2688 20.8634 24.4986 19.9112 25.6471C18.9692 26.7957 17.7201 26.877 16.3992 25.8098L13.6654 23.5737L14.2183 22.913L16.8702 25.078C17.7713 25.8098 18.6109 26.0334 19.3276 25.1796C20.0341 24.3258 19.6552 23.5432 18.7542 22.8114L16.1023 20.6465L16.6552 19.9858L19.3993 22.2219L19.389 22.2016Z" fill="#7CAC3B"/>
<path id="Vector_6" d="M20.7918 17.2009C20.3515 17.3839 20.1263 17.4855 19.7986 17.8006C19.4505 18.136 19.1536 18.6544 19.5938 19.1016C20.3925 19.935 22.0921 17.9632 23.4642 19.3963C24.3549 20.3213 23.9863 21.3783 23.1058 22.2016C22.7986 22.4963 22.4198 22.6895 22.0409 22.8724L21.5495 22.2321C21.8464 22.1203 22.3379 21.8865 22.6655 21.5816C23.0239 21.2462 23.331 20.5652 22.8396 20.057C21.9078 19.0813 20.2798 21.1344 18.9795 19.7826C18.2423 19.0101 18.4573 18.0242 19.2457 17.2721C19.5324 16.9977 19.9317 16.7232 20.331 16.5403L20.7918 17.1908V17.2009Z" fill="#7CAC3B"/>
<path id="Vector_7" d="M23.2696 14.9646L21.7747 16.103L21.3139 15.5033L24.9897 12.7083L25.4505 13.3079L23.9556 14.4463L27.1706 18.6033L26.4846 19.1319L23.2696 14.9646Z" fill="#7CAC3B"/>
<path id="Vector_8" d="M28.1228 11.7123L28.6348 14.8835L30.7031 13.6536L28.1228 11.7123ZM27.3447 11.2346L28.1228 10.7671L33.4266 14.6091L32.6178 15.0969L31.3072 14.111L28.7577 15.6254L29.0136 17.2415L28.2355 17.7091L27.3447 11.2346Z" fill="#7CAC3B"/>
<path id="Vector_9" d="M32.5022 8.51709L31.714 8.8833L34.2746 14.3146L35.0629 13.9484L32.5022 8.51709Z" fill="#7CAC3B"/>
<path id="Vector_10" d="M34.3892 7.65689L35.495 7.27066L39.6213 10.9602L39.6418 10.95L38.0343 6.3864L38.8534 6.10181L40.85 11.7733L39.8056 12.1392L35.5769 8.36836L35.5564 8.37853L37.1947 13.0438L36.3756 13.3284L34.3892 7.65689Z" fill="#7CAC3B"/>
<path id="Vector_11" d="M43.4711 5.88841L42.8567 9.03923L45.2219 8.58185L43.4711 5.88841ZM42.8977 5.17694L43.7885 5.00415L47.4438 10.4215L46.512 10.6045L45.6213 9.23234L42.7134 9.79136L42.396 11.3973L41.5052 11.57L42.8977 5.1871V5.17694Z" fill="#7CAC3B"/>
<path id="Vector_12" d="M53.7101 4.20117L54.5804 4.25199L54.3039 9.49658L56.833 9.61855L56.792 10.3808L53.3927 10.2081L53.7101 4.20117Z" fill="#7CAC3B"/>
<path id="Vector_13" d="M58.5941 4.55688L61.932 5.08541L61.8193 5.83754L59.3313 5.44115L59.0548 7.17918L61.3176 7.53491L61.1948 8.27688L58.932 7.92114L58.6146 9.87262L61.1129 10.269L60.99 11.011L57.6419 10.4926L58.5941 4.55688Z" fill="#7CAC3B"/>
<path id="Vector_14" d="M78.1928 11.5046L74.9308 16.564L75.6638 17.0297L78.9258 11.9703L78.1928 11.5046Z" fill="#7CAC3B"/>
<path id="Vector_15" d="M80.6283 13.0945L81.3143 13.623L78.1198 17.8004L80.1368 19.3148L79.6761 19.9246L76.973 17.8817L80.6283 13.0945Z" fill="#7CAC3B"/>
<path id="Vector_16" d="M84.3655 17.0686L82.9832 15.8083L83.4952 15.2493L86.9047 18.3493L86.3928 18.9083L85.0105 17.648L81.4371 21.5204L80.8023 20.9411L84.3655 17.0686Z" fill="#7CAC3B"/>
<path id="Vector_17" d="M89.8945 21.6628L91.9628 24.3258L91.3587 24.7933L89.8126 22.8114L88.4201 23.8786L89.8228 25.6878L89.2187 26.1451L87.816 24.3461L86.2392 25.5556L87.775 27.5376L87.1709 27.995L85.1027 25.332L89.8945 21.6628Z" fill="#7CAC3B"/>
<path id="Vector_18" d="M93.0583 25.8809L93.6522 26.8871L90.816 31.6235V31.6336L95.014 29.1841L95.4543 29.9261L90.2426 32.9651L89.6795 32.0199L92.5771 27.1717L92.5669 27.1615L88.287 29.6618L87.8467 28.9199L93.0583 25.8809Z" fill="#7CAC3B"/>
<path id="Vector_19" d="M91.8705 36.6443L91.4507 35.6584L96.1709 31.2676L96.5395 32.162L92.3722 35.8718V35.8922L97.9934 35.6381L98.3415 36.4715L91.8705 36.6443Z" fill="#7CAC3B"/>
<path id="Vector_20" d="M98.7242 37.8896L92.9334 39.6328L93.1859 40.4596L98.9767 38.7164L98.7242 37.8896Z" fill="#7CAC3B"/>
<path id="Vector_21" d="M100.953 53.7199L100.861 54.8887L95.7922 57.1451V57.1655L100.645 57.5415L100.574 58.4055L94.5431 57.9278L94.6352 56.8301L99.8059 54.5127L99.8161 54.4924L94.8502 54.1061L94.9219 53.2422L100.953 53.7199Z" fill="#7CAC3B"/>
<path id="Vector_22" d="M100.287 60.6108L99.9492 61.9931L94.6147 62.6232L99.0379 65.6114L98.7 66.9937L92.8331 65.5504L93.0379 64.717L98.1164 65.9671V65.9468L93.5191 62.7655L93.7239 61.9524L99.2837 61.2714L99.2939 61.2511L94.2154 60.0009L94.4202 59.1675L100.287 60.6108Z" fill="#7CAC3B"/>
<path id="Vector_23" d="M97.8604 69.1081L96.5703 72.2182L95.8638 71.9235L96.8263 69.6163L95.1983 68.9455L94.3177 71.0494L93.6112 70.7546L94.4918 68.6507L92.6488 67.8986L91.6863 70.2058L90.9798 69.9212L92.2802 66.811L97.8604 69.1081Z" fill="#7CAC3B"/>
<path id="Vector_24" d="M95.7717 73.9054L95.1881 74.9218L89.6386 74.8303L89.6283 74.8506L93.8673 77.2391L93.4372 77.9811L88.1744 75.0132L88.7273 74.0578L94.3997 74.1391L94.4099 74.1188L90.0891 71.6795L90.5191 70.9375L95.7717 73.9054Z" fill="#7CAC3B"/>
<path id="Vector_25" d="M90.8569 80.278L91.9832 78.7941L92.5976 79.2413L89.8126 82.9206L89.2085 82.4633L90.3348 80.9692L86.1061 77.8183L86.6283 77.1272L90.8569 80.278Z" fill="#7CAC3B"/>
<path id="Vector_26" d="M52.553 1.83313C24.6416 1.83313 1.94188 24.3666 1.94188 52.0734C1.94188 65.4898 7.18422 78.0626 16.7167 87.5455L24.2628 80.1462C16.7065 72.6452 12.5597 62.7049 12.5597 52.0734C12.5597 30.1803 30.4983 12.3731 52.553 12.3731C74.6077 12.3731 92.5464 30.1803 92.5464 52.0734C92.5464 62.1357 88.7682 71.7 81.8876 79.0587L89.2597 86.6511C98.229 77.28 103.154 65.0223 103.154 52.0734C103.154 24.3666 80.4542 1.83313 52.553 1.83313ZM16.7167 88.9482L16.3583 88.6026C6.40606 78.896 0.928223 65.9167 0.928223 52.0734C0.928223 23.8177 24.0887 0.826904 52.553 0.826904C81.0173 0.826904 104.168 23.8177 104.168 52.0734C104.168 65.4593 98.9969 78.1134 89.6283 87.7285L89.2597 88.1045L80.4849 79.0688L80.8228 78.7232C87.7341 71.5069 91.5327 62.0442 91.5327 52.0836C91.5327 30.7495 74.0446 13.3895 52.553 13.3895C31.0615 13.3895 13.5631 30.7292 13.5631 52.0734C13.5631 62.5931 17.7406 72.4318 25.3277 79.7803L25.6963 80.136L16.7065 88.9482H16.7167Z" fill="#7CAC3B"/>
<path id="Vector_27" d="M29.198 92.1191L29.6281 92.3631C30.0786 92.607 30.6827 92.8204 30.9796 92.2818C31.3175 91.6719 30.8158 91.3263 30.3243 91.0621L29.9147 90.8385L29.1878 92.1293L29.198 92.1191ZM27.8977 94.4162L28.3994 94.6906C28.8909 94.965 29.5564 95.1785 29.8943 94.5686C30.2834 93.8877 29.7816 93.4709 29.2492 93.1762L28.7475 92.9017L27.8977 94.4162ZM29.3311 89.4155L31.1741 90.4421C31.8499 90.8181 32.7612 91.5804 32.1161 92.729C31.768 93.349 31.0922 93.5522 30.4062 93.3185V93.3388C31.082 93.8063 31.297 94.5585 30.9386 95.1988C30.1912 96.5201 28.8909 96.0526 28.2253 95.6867L26.3823 94.6601L29.3414 89.4155H29.3311Z" fill="#7CAC3B"/>
<path id="Vector_28" d="M34.1025 94.7313L34.4711 94.8838C35.024 95.1074 35.6895 95.2903 35.9762 94.589C36.2527 93.9182 35.6486 93.6133 35.0957 93.3795L34.7271 93.2271L34.1127 94.7212L34.1025 94.7313ZM33.9591 91.9058L35.1673 92.3936C36.3653 92.8815 37.8192 93.4303 37.1844 94.9753C36.9182 95.6258 36.2527 95.9917 35.495 95.7985V95.8189C35.7817 95.9612 35.8329 96.3372 35.8431 96.632V99.173L34.594 98.6648L34.6349 96.6523C34.6451 96.1746 34.5632 95.951 34.0922 95.7579L33.7339 95.6156L32.7817 97.9228L31.6554 97.4654L33.9489 91.9058H33.9591Z" fill="#7CAC3B"/>
<path id="Vector_29" d="M38.9455 93.8267L42.3756 94.7821L42.1196 95.6968L39.8568 95.0667L39.4472 96.4896L41.5257 97.069L41.2698 97.9735L39.1912 97.3942L38.7305 99.0204L41.024 99.6608L40.768 100.565L37.3073 99.6099L38.9455 93.8267Z" fill="#7CAC3B"/>
<path id="Vector_30" d="M52.1948 95.9304L53.4132 95.8999L53.5361 100.962L55.891 100.901L55.9115 101.856L52.3484 101.937L52.1948 95.9304Z" fill="#7CAC3B"/>
<path id="Vector_31" d="M70.717 93.3591H70.6965L70.9013 95.9814L72.519 95.2801L70.717 93.3591ZM69.6214 92.5257L70.8705 91.9768L75.4678 96.5302L74.2392 97.0588L73.205 96.0017L70.9627 96.9775L71.0344 98.4512L69.8774 98.9493L69.6112 92.5155L69.6214 92.5257Z" fill="#7CAC3B"/>
<path id="Vector_32" d="M73.7067 90.5945L74.751 89.9846L77.3415 94.3348L79.3586 93.1456L79.85 93.9587L76.7784 95.7577L73.7067 90.5945Z" fill="#7CAC3B"/>
<path id="Vector_33" d="M9.6416 50.01C9.71327 48.6277 8.58699 47.9772 7.37879 47.9162C6.15011 47.8553 4.97263 48.4448 4.9112 49.7762C4.83953 51.0975 5.94533 51.809 7.17401 51.87C8.37197 51.931 9.56992 51.4025 9.6416 50.01ZM4.15352 49.7356C4.24567 47.9162 5.63817 46.9202 7.42998 47.0116C9.26276 47.1031 10.5017 48.2313 10.4095 50.0608C10.3174 51.8903 8.96583 52.8864 7.13305 52.7848C5.34124 52.6933 4.06137 51.5651 4.15352 49.7356Z" fill="#7CAC3B"/>
<path id="Vector_34" d="M7.40948 44.6637L7.55283 43.942C7.70641 43.1391 7.4402 42.6004 6.86682 42.4886C6.33439 42.3869 5.91459 42.7325 5.76101 43.505L5.60743 44.3181L7.40948 44.6637ZM4.69616 45.0194L4.97261 43.5761C5.19787 42.4073 5.59719 41.3197 7.0204 41.5942C7.73713 41.7263 8.14669 42.3564 8.13645 43.0679H8.15693C8.31051 42.8342 8.46409 42.7325 8.86341 42.6105L11.4436 41.9499L11.2593 42.9155L9.02724 43.4237C8.40266 43.5761 8.34123 43.8505 8.25932 44.2978L8.15693 44.806L10.7986 45.304L10.6348 46.1476L4.69616 45.0194Z" fill="#7CAC3B"/>
<path id="Vector_35" d="M13.5016 78.9365C13.5528 79.3735 13.7166 79.7801 13.9931 80.1257C14.8429 81.2234 16.2047 81.3555 17.2798 80.5322C18.4061 79.6784 18.5392 78.2961 17.7713 77.3102C17.505 76.9748 17.0648 76.5784 16.7371 76.4463L17.3719 75.8975C17.802 76.1414 18.1706 76.5784 18.3856 76.8529C19.5426 78.3673 19.3378 80.1053 17.8122 81.264C16.3276 82.382 14.5255 82.067 13.4095 80.6135C13.1228 80.2476 12.8975 79.8411 12.7849 79.3837L13.4914 78.9365H13.5016Z" fill="#7CAC3B"/>
<path id="Vector_36" d="M15.2116 73.3363C14.5153 72.137 13.215 72.1878 12.1706 72.7773C11.1057 73.3871 10.43 74.5153 11.1057 75.6638C11.761 76.8225 13.0819 76.8225 14.1467 76.2229C15.1911 75.6334 15.9078 74.5458 15.2116 73.3363ZM10.4402 76.0399C9.52894 74.4543 10.1535 72.8688 11.7098 71.9947C13.3071 71.0901 14.9556 71.3747 15.8669 72.9704C16.7781 74.5661 16.1843 76.1212 14.587 77.0258C13.0307 77.9101 11.3412 77.6356 10.43 76.0501" fill="#7CAC3B"/>
<path id="Vector_37" d="M12.918 69.0672L12.5904 68.2236C12.0477 66.8413 11.0853 66.3433 9.63133 66.9023C8.31051 67.4105 7.88047 68.5996 8.33099 69.7482L8.69959 70.6833L12.918 69.057V69.0672ZM8.30027 71.7606L7.65522 70.1039C7.01016 68.4472 7.52211 66.7193 9.26273 66.0587C11.1569 65.337 12.5802 66.0993 13.2969 67.939L13.9419 69.5957L8.30027 71.7606Z" fill="#7CAC3B"/>
<path id="Vector_38" d="M50.5461 97.0894C50.0956 96.8353 49.5017 96.6726 49.0205 96.6218C47.6178 96.4897 46.7475 97.3638 46.6348 98.5835C46.5222 99.793 47.1877 100.789 48.4778 100.901C48.8055 100.931 49.0615 100.921 49.2765 100.891L49.4198 99.3356L48.14 99.2136L48.2321 98.2684L50.669 98.492L50.3618 101.714C49.7065 101.826 49.0307 101.897 48.3857 101.846C46.4403 101.663 45.1707 100.576 45.3652 98.553C45.5597 96.51 46.9215 95.4733 48.9693 95.6664C49.6656 95.7376 50.2082 95.8799 50.7099 96.0831L50.5359 97.0894H50.5461Z" fill="#7CAC3B"/>
<path id="Vector_39" d="M59.8227 100.545C61.0514 100.362 61.3381 99.2134 61.1845 98.1462C61.0309 97.0993 60.3756 96.1033 59.1879 96.2761C58.0002 96.4489 57.6725 97.5974 57.8261 98.6443C57.9899 99.7115 58.6043 100.728 59.8227 100.555M59.0445 95.3511C60.9183 95.0767 62.1674 96.1846 62.4336 97.9734C62.6998 99.7725 61.8602 101.216 59.966 101.49C58.0411 101.775 56.8432 100.657 56.5769 98.8374C56.3005 97.018 57.1503 95.6357 59.0548 95.3511" fill="#7CAC3B"/>
<path id="Vector_40" d="M65.6282 99.2338L66.1811 99.0711C66.7238 98.9187 67.3381 98.5934 67.1436 97.9226C66.9286 97.1705 66.2733 97.2315 65.6897 97.4043L65.1368 97.5567L65.6282 99.2236V99.2338ZM64.891 96.7029L65.362 96.5708C65.8535 96.4285 66.4269 96.1439 66.2528 95.5544C66.0583 94.8836 65.4542 95.0056 64.9217 95.158L64.4712 95.2902L64.891 96.7131V96.7029ZM63.048 94.7108L65.0753 94.1213C65.8228 93.9079 67.0105 93.7961 67.3791 95.0564C67.5839 95.7475 67.2562 96.3574 66.6009 96.6826V96.7029C67.4201 96.5505 68.1163 96.9265 68.3211 97.638C68.7511 99.0915 67.4917 99.681 66.7648 99.8944L64.7374 100.484L63.048 94.721V94.7108Z" fill="#7CAC3B"/>
<path id="Vector_41" d="M49.0104 9.63896L49.6555 9.59831C50.4336 9.55765 51.1299 9.35437 51.0787 8.54126C51.0275 7.61634 50.1981 7.53503 49.4507 7.57569L48.8875 7.60618L49.0002 9.6288L49.0104 9.63896ZM48.8568 6.90487L49.3278 6.88454C50.1674 6.83372 50.8739 6.72192 50.8227 5.83766C50.7818 5.12618 50.1572 4.98389 49.6555 5.00421L48.7442 5.05503L48.8466 6.90487H48.8568ZM47.8432 4.39438L49.4814 4.3029C50.7306 4.23176 51.6213 4.58749 51.6828 5.69536C51.734 6.51864 51.2732 6.95569 50.5155 7.18946V7.20979C51.3449 7.23011 51.949 7.72815 52.0002 8.57175C52.0719 9.86257 51.0173 10.2285 49.7886 10.2996L48.1811 10.3911L47.8432 4.39438Z" fill="#7CAC3B"/>
<path id="Vector_42" d="M66.693 8.97826L67.1435 9.13072C67.9422 9.40515 68.6282 9.56777 68.9251 8.72416C69.1606 8.05335 68.6384 7.67728 68.1674 7.51466L67.3074 7.2199L66.693 8.9681V8.97826ZM65.7817 11.5599L66.3961 11.7733C67.1333 12.0274 67.85 12.1088 68.1162 11.3363C68.4234 10.4622 67.6964 10.076 66.9899 9.82187L66.4575 9.63892L65.7817 11.5497V11.5599ZM66.734 6.27466L68.2801 6.81335C69.4678 7.2199 70.1538 7.89072 69.7749 8.93761C69.4985 9.71007 68.9046 9.94384 68.1265 9.87269V9.89302C68.8739 10.2284 69.2425 10.9196 68.9661 11.7124C68.536 12.932 67.42 12.871 66.263 12.4645L64.7476 11.936L66.7442 6.27466H66.734Z" fill="#7CAC3B"/>
<path id="Vector_43" d="M74.7817 13.5112C74.0138 15.0154 72.8465 15.4423 71.5052 14.7715C70.1741 14.1109 69.8158 12.9115 70.5837 11.4073L72.181 8.2666L72.9591 8.65283L71.4131 11.6918C70.8909 12.7184 70.8602 13.5925 71.8533 14.0905C72.8465 14.5886 73.5325 14.0499 74.0547 13.0132L75.6008 9.97414L76.379 10.3604L74.7817 13.501V13.5112Z" fill="#7CAC3B"/>
<path id="Vector_44" d="M97.1744 42.0415L97.3177 42.753C97.4816 43.5559 97.9321 43.9523 98.5055 43.8405C99.0379 43.7287 99.2939 43.2611 99.1403 42.4887L98.9765 41.6756L97.1744 42.0415ZM99.5498 40.6795L99.8468 42.1228C100.082 43.2815 100.133 44.4402 98.7102 44.7349C97.9935 44.8772 97.3689 44.4503 97.113 43.7998H97.0925C97.0413 44.0844 96.9491 44.2369 96.6215 44.491L94.4918 46.0766L94.2973 45.111L96.1607 43.7897C96.6829 43.4136 96.6317 43.129 96.5294 42.6818L96.427 42.1736L93.7955 42.7021L93.6215 41.8585L99.5498 40.6592V40.6795Z" fill="#7CAC3B"/>
<path id="Vector_45" d="M95.4236 49.2985C95.5157 50.6808 96.7137 51.1991 97.9219 51.1178C99.1506 51.0365 100.246 50.3047 100.154 48.9834C100.072 47.6621 98.8844 47.0828 97.6557 47.1641C96.4577 47.2454 95.3314 47.9162 95.4236 49.2985ZM100.912 48.9326C101.035 50.7519 99.7751 51.9106 97.9833 52.0224C96.1506 52.1444 94.7888 51.1788 94.6659 49.3493C94.543 47.5198 95.7615 46.3814 97.5942 46.2595C99.3861 46.1375 100.789 47.1132 100.912 48.9326Z" fill="#7CAC3B"/>
<path id="Vector_46" d="M49.3994 45.9037C49.9011 45.9037 50.198 45.6293 50.198 45.0804C50.198 44.5316 49.9011 44.2368 49.3994 44.2368H43.512C42.9181 44.2368 42.6622 44.4808 42.6622 45.0804V58.6086C42.6622 59.1981 42.9181 59.4522 43.512 59.4522H49.3994C49.9011 59.4522 50.198 59.1575 50.198 58.6086C50.198 58.0598 49.9011 57.7853 49.3994 57.7853H44.3516V52.6526H47.9352C48.4369 52.6526 48.7134 52.3781 48.7134 51.8293C48.7134 51.2804 48.4369 50.9857 47.9352 50.9857H44.3516V45.8935H49.3994V45.9037Z" fill="#7CAC3B"/>
<path id="Vector_47" d="M63.3244 54.2482L65.3927 47.977L67.461 54.2482H63.3244ZM66.3142 45.0295C66.1299 44.4603 65.9456 44.2266 65.3927 44.2266C64.8398 44.2266 64.6555 44.4502 64.4712 45.0295L60.1503 58.3646C60.0582 58.6593 59.9456 59.1574 60.6828 59.4013C61.3381 59.6147 61.6657 59.1879 61.7476 58.9134L62.7101 55.9049H68.0446L69.007 58.9134C69.0992 59.1879 69.4064 59.6554 70.1231 59.4216C70.7886 59.198 70.7067 58.639 70.635 58.3849L66.2937 45.0295H66.3142Z" fill="#7CAC3B"/>
<path id="Vector_48" d="M81.6112 44.2368C81.0378 44.2368 80.9661 44.5112 80.6282 45.0804L77.1777 50.945L73.7272 45.0804C73.3791 44.5112 73.3176 44.2368 72.7443 44.2368C72.1709 44.2368 71.8944 44.4909 71.8944 45.0804V58.6086C71.8944 59.1981 72.1504 59.4522 72.7443 59.4522C73.3381 59.4522 73.5736 59.2083 73.5736 58.6086V48.2109L76.2562 52.7034C76.461 53.0489 76.676 53.4148 77.1777 53.4148C77.6794 53.4148 77.8944 53.0489 78.0992 52.7034L80.7921 48.2109V58.6086C80.7921 59.1981 81.0173 59.4522 81.6214 59.4522C82.2255 59.4522 82.4713 59.2083 82.4713 58.6086V45.0804C82.4713 44.4909 82.2153 44.2368 81.6214 44.2368" fill="#7CAC3B"/>
<path id="Vector_49" d="M58.297 45.9037C58.8089 45.9037 59.1058 45.6293 59.1058 45.0804C59.1058 44.5316 58.8089 44.2368 58.297 44.2368H52.4096C51.8157 44.2368 51.5597 44.4808 51.5597 45.0804V58.6086C51.5597 59.1981 51.8055 59.4522 52.4096 59.4522H58.297C58.8089 59.4522 59.1058 59.1575 59.1058 58.6086C59.1058 58.0598 58.8089 57.7853 58.297 57.7853H53.2389V52.6526H56.8225C57.3243 52.6526 57.6007 52.3781 57.6007 51.8293C57.6007 51.2804 57.3243 50.9857 56.8225 50.9857H53.2389V45.8935H58.297V45.9037Z" fill="#7CAC3B"/>
<path id="Vector_50" d="M34.0513 50.9857V45.9241H37.2152C38.6691 45.9241 39.5087 46.7982 39.5087 48.3329C39.5087 48.3329 39.6725 49.4306 38.9353 50.3149C38.5462 50.7824 38.0138 50.9755 37.3483 50.9755H34.0513V50.9857ZM38.1674 52.6018C38.9763 52.4391 39.6623 52.0326 40.2152 51.4024C41.3517 50.1014 41.1879 48.3431 41.1879 48.3431C41.1879 45.9037 39.5906 44.2673 37.2152 44.2673C37.2152 44.2673 33.1093 44.2673 33.0479 44.2877C32.5769 44.3385 32.3721 44.5926 32.3721 45.1211V58.6493C32.3721 59.2388 32.6281 59.4929 33.222 59.4929C33.8158 59.4929 34.0513 59.249 34.0513 58.6493V52.6627H36.3039L39.8159 59.0152C40.1025 59.5335 40.4507 59.6352 40.9729 59.3506C41.495 59.066 41.577 58.7408 41.2903 58.2122L38.1879 52.6119L38.1674 52.6018Z" fill="#7CAC3B"/>
<path id="Vector_51" d="M29.3004 55.3257C29.3004 56.8604 28.4608 57.7345 27.0069 57.7345H23.2595V52.6526H27.14C27.8056 52.6526 28.3277 52.8762 28.7271 53.3437C29.3004 54.0145 29.3004 55.3257 29.3004 55.3257ZM23.2595 45.9037H26.4233C27.8772 45.9037 28.7168 46.7778 28.7168 48.3126C28.7168 48.3126 28.8499 49.5119 28.1537 50.2945C27.7441 50.7519 27.2322 50.9857 26.5666 50.9857H23.2697V45.9037H23.2595ZM30.0069 52.2663C29.7612 52.0021 29.28 51.6463 29.198 51.6057C29.2697 51.5345 29.3516 51.4532 29.4233 51.3719C30.5394 50.1421 30.396 48.3126 30.396 48.3126C30.396 45.8732 28.7987 44.2368 26.4233 44.2368H22.4199C21.9591 44.2368 21.5803 44.6129 21.5803 45.0703V58.5781C21.5803 59.0355 21.9591 59.4116 22.4199 59.4116H27.0069C29.3823 59.4116 30.9796 57.7752 30.9796 55.3358C30.9796 55.3358 31.1434 53.5266 30.0069 52.2765" fill="#7CAC3B"/>
</g>
</svg>
