<svg width="24" height="24" viewBox="0 0 24 24" fill="none" xmlns="http://www.w3.org/2000/svg">
<g id="carbon:plan">
<g id="Vector">
<path d="M11.8763 5.31727L12 5.38767L12.1237 5.31727L16.9925 2.54578C17.0477 2.51865 17.0786 2.51013 17.1036 2.50597C17.1356 2.50064 17.1701 2.5 17.25 2.5C17.3299 2.5 17.3644 2.50064 17.3964 2.50597C17.4213 2.51013 17.4523 2.51863 17.5073 2.5457L22.743 5.5375C22.9063 5.64868 23 5.79969 23 6V21C23 21.1682 22.945 21.2889 22.867 21.367C22.7889 21.445 22.6682 21.5 22.5 21.5C22.4204 21.5 22.3643 21.4995 22.3197 21.4931C22.3054 21.4911 22.2962 21.4889 22.291 21.4874L22.278 21.4744L22.2487 21.4577L17.3737 18.6827L17.25 18.6123L17.1263 18.6827L12.2575 21.4542C12.2023 21.4813 12.1714 21.4899 12.1464 21.494C12.1144 21.4994 12.0799 21.5 12 21.5C11.9201 21.5 11.8856 21.4994 11.8536 21.494C11.8286 21.4899 11.7977 21.4813 11.7425 21.4542L6.87367 18.6827L6.75 18.6123L6.62633 18.6827L1.80192 21.4289C1.72132 21.4376 1.65785 21.4588 1.61377 21.4735L1.60844 21.4753C1.55229 21.494 1.5304 21.5 1.5 21.5C1.33181 21.5 1.21108 21.445 1.13303 21.367C1.05497 21.2889 1 21.1682 1 21V6C1 5.79969 1.09374 5.64868 1.25701 5.5375L6.49267 2.5457C6.54772 2.51863 6.57868 2.51013 6.6036 2.50597C6.63559 2.50064 6.67008 2.5 6.75 2.5C6.82992 2.5 6.86441 2.50064 6.8964 2.50597C6.92135 2.51013 6.95234 2.51865 7.00751 2.54579L11.8763 5.31727ZM2.12457 6.23374L2 6.30599V6.45V19.725V20.159L2.37543 19.9413L6.12543 17.7663L6.25 17.694V17.55V4.275V3.84099L5.87457 4.05874L2.12457 6.23374ZM11.1246 19.9413L11.5 20.159V19.725V6.45V6.30599L11.3754 6.23374L7.62543 4.05874L7.25 3.84099V4.275V17.55V17.694L7.37457 17.7663L11.1246 19.9413ZM16.6254 17.7663L16.75 17.694V17.55V4.275V3.84099L16.3746 4.05874L12.6246 6.23374L12.5 6.30599V6.45V19.725V20.159L12.8754 19.9413L16.6254 17.7663ZM17.75 17.55V17.694L17.8746 17.7663L21.6246 19.9413L22 20.159V19.725V6.45V6.30599L21.8754 6.23374L18.1254 4.05874L17.75 3.84099V4.275V17.55Z" fill="#1B1B1B"/>
<path d="M11.8763 5.31727L12 5.38767L12.1237 5.31727L16.9925 2.54578C17.0477 2.51865 17.0786 2.51013 17.1036 2.50597C17.1356 2.50064 17.1701 2.5 17.25 2.5C17.3299 2.5 17.3644 2.50064 17.3964 2.50597C17.4213 2.51013 17.4523 2.51863 17.5073 2.5457L22.743 5.5375C22.9063 5.64868 23 5.79969 23 6V21C23 21.1682 22.945 21.2889 22.867 21.367C22.7889 21.445 22.6682 21.5 22.5 21.5C22.4204 21.5 22.3643 21.4995 22.3197 21.4931C22.3054 21.4911 22.2962 21.4889 22.291 21.4874L22.278 21.4744L22.2487 21.4577L17.3737 18.6827L17.25 18.6123L17.1263 18.6827L12.2575 21.4542C12.2023 21.4813 12.1714 21.4899 12.1464 21.494C12.1144 21.4994 12.0799 21.5 12 21.5C11.9201 21.5 11.8856 21.4994 11.8536 21.494C11.8286 21.4899 11.7977 21.4813 11.7425 21.4542L6.87367 18.6827L6.75 18.6123L6.62633 18.6827L1.80192 21.4289C1.72132 21.4376 1.65785 21.4588 1.61377 21.4735L1.60844 21.4753C1.55229 21.494 1.5304 21.5 1.5 21.5C1.33181 21.5 1.21108 21.445 1.13303 21.367C1.05497 21.2889 1 21.1682 1 21V6C1 5.79969 1.09374 5.64868 1.25701 5.5375L6.49267 2.5457C6.54772 2.51863 6.57868 2.51013 6.6036 2.50597C6.63559 2.50064 6.67008 2.5 6.75 2.5C6.82992 2.5 6.86441 2.50064 6.8964 2.50597C6.92135 2.51013 6.95234 2.51865 7.00751 2.54579L11.8763 5.31727ZM2.12457 6.23374L2 6.30599V6.45V19.725V20.159L2.37543 19.9413L6.12543 17.7663L6.25 17.694V17.55V4.275V3.84099L5.87457 4.05874L2.12457 6.23374ZM11.1246 19.9413L11.5 20.159V19.725V6.45V6.30599L11.3754 6.23374L7.62543 4.05874L7.25 3.84099V4.275V17.55V17.694L7.37457 17.7663L11.1246 19.9413ZM16.6254 17.7663L16.75 17.694V17.55V4.275V3.84099L16.3746 4.05874L12.6246 6.23374L12.5 6.30599V6.45V19.725V20.159L12.8754 19.9413L16.6254 17.7663ZM17.75 17.55V17.694L17.8746 17.7663L21.6246 19.9413L22 20.159V19.725V6.45V6.30599L21.8754 6.23374L18.1254 4.05874L17.75 3.84099V4.275V17.55Z" fill="black" fill-opacity="0.2"/>
<path d="M11.8763 5.31727L12 5.38767L12.1237 5.31727L16.9925 2.54578C17.0477 2.51865 17.0786 2.51013 17.1036 2.50597C17.1356 2.50064 17.1701 2.5 17.25 2.5C17.3299 2.5 17.3644 2.50064 17.3964 2.50597C17.4213 2.51013 17.4523 2.51863 17.5073 2.5457L22.743 5.5375C22.9063 5.64868 23 5.79969 23 6V21C23 21.1682 22.945 21.2889 22.867 21.367C22.7889 21.445 22.6682 21.5 22.5 21.5C22.4204 21.5 22.3643 21.4995 22.3197 21.4931C22.3054 21.4911 22.2962 21.4889 22.291 21.4874L22.278 21.4744L22.2487 21.4577L17.3737 18.6827L17.25 18.6123L17.1263 18.6827L12.2575 21.4542C12.2023 21.4813 12.1714 21.4899 12.1464 21.494C12.1144 21.4994 12.0799 21.5 12 21.5C11.9201 21.5 11.8856 21.4994 11.8536 21.494C11.8286 21.4899 11.7977 21.4813 11.7425 21.4542L6.87367 18.6827L6.75 18.6123L6.62633 18.6827L1.80192 21.4289C1.72132 21.4376 1.65785 21.4588 1.61377 21.4735L1.60844 21.4753C1.55229 21.494 1.5304 21.5 1.5 21.5C1.33181 21.5 1.21108 21.445 1.13303 21.367C1.05497 21.2889 1 21.1682 1 21V6C1 5.79969 1.09374 5.64868 1.25701 5.5375L6.49267 2.5457C6.54772 2.51863 6.57868 2.51013 6.6036 2.50597C6.63559 2.50064 6.67008 2.5 6.75 2.5C6.82992 2.5 6.86441 2.50064 6.8964 2.50597C6.92135 2.51013 6.95234 2.51865 7.00751 2.54579L11.8763 5.31727ZM2.12457 6.23374L2 6.30599V6.45V19.725V20.159L2.37543 19.9413L6.12543 17.7663L6.25 17.694V17.55V4.275V3.84099L5.87457 4.05874L2.12457 6.23374ZM11.1246 19.9413L11.5 20.159V19.725V6.45V6.30599L11.3754 6.23374L7.62543 4.05874L7.25 3.84099V4.275V17.55V17.694L7.37457 17.7663L11.1246 19.9413ZM16.6254 17.7663L16.75 17.694V17.55V4.275V3.84099L16.3746 4.05874L12.6246 6.23374L12.5 6.30599V6.45V19.725V20.159L12.8754 19.9413L16.6254 17.7663ZM17.75 17.55V17.694L17.8746 17.7663L21.6246 19.9413L22 20.159V19.725V6.45V6.30599L21.8754 6.23374L18.1254 4.05874L17.75 3.84099V4.275V17.55Z" stroke="black" stroke-width="0.5"/>
</g>
</g>
</svg>
