<svg width="24" height="24" viewBox="0 0 24 24" fill="none" xmlns="http://www.w3.org/2000/svg">
<g id="material-symbols:energy-savings-leaf-outline">
<g id="Vector">
<path d="M12 21C10.9333 21 9.925 20.825 8.975 20.475C8.025 20.125 7.16667 19.6417 6.4 19.025L4.425 21L3 19.575L4.975 17.6C4.35833 16.8333 3.875 15.9707 3.525 15.012C3.175 14.0533 3 13.0493 3 12C3 9.5 3.87933 7.375 5.638 5.625C7.39667 3.875 9.51733 3 12 3H21V12C21 14.4833 20.125 16.6043 18.375 18.363C16.625 20.1217 14.5 21.0007 12 21ZM12 19C13.95 19 15.6043 18.3167 16.963 16.95C18.3217 15.5833 19.0007 13.9333 19 12V5H12C10.0667 5 8.41667 5.67933 7.05 7.038C5.68333 8.39667 5 10.0507 5 12C5 13.9333 5.68333 15.5833 7.05 16.95C8.41667 18.3167 10.0667 19 12 19ZM10.675 16.875L15.85 12.25C16.0167 12.1 16.0667 11.921 16 11.713C15.9333 11.505 15.7833 11.384 15.55 11.35L11.5 10.95L13.925 7.625C13.9917 7.54167 14.021 7.45433 14.013 7.363C14.005 7.27167 13.9673 7.184 13.9 7.1C13.8167 7.01667 13.7207 6.975 13.612 6.975C13.5033 6.975 13.4077 7.01667 13.325 7.1L8.175 11.725C8.00833 11.875 7.95833 12.0543 8.025 12.263C8.09167 12.4717 8.24167 12.5923 8.475 12.625L12.525 13.025L10.075 16.35C10.025 16.4333 10 16.521 10 16.613C10 16.705 10.0417 16.7923 10.125 16.875C10.2083 16.9583 10.3 17 10.4 17C10.5 17 10.5917 16.9583 10.675 16.875Z" fill="#1B1B1B"/>
<path d="M12 21C10.9333 21 9.925 20.825 8.975 20.475C8.025 20.125 7.16667 19.6417 6.4 19.025L4.425 21L3 19.575L4.975 17.6C4.35833 16.8333 3.875 15.9707 3.525 15.012C3.175 14.0533 3 13.0493 3 12C3 9.5 3.87933 7.375 5.638 5.625C7.39667 3.875 9.51733 3 12 3H21V12C21 14.4833 20.125 16.6043 18.375 18.363C16.625 20.1217 14.5 21.0007 12 21ZM12 19C13.95 19 15.6043 18.3167 16.963 16.95C18.3217 15.5833 19.0007 13.9333 19 12V5H12C10.0667 5 8.41667 5.67933 7.05 7.038C5.68333 8.39667 5 10.0507 5 12C5 13.9333 5.68333 15.5833 7.05 16.95C8.41667 18.3167 10.0667 19 12 19ZM10.675 16.875L15.85 12.25C16.0167 12.1 16.0667 11.921 16 11.713C15.9333 11.505 15.7833 11.384 15.55 11.35L11.5 10.95L13.925 7.625C13.9917 7.54167 14.021 7.45433 14.013 7.363C14.005 7.27167 13.9673 7.184 13.9 7.1C13.8167 7.01667 13.7207 6.975 13.612 6.975C13.5033 6.975 13.4077 7.01667 13.325 7.1L8.175 11.725C8.00833 11.875 7.95833 12.0543 8.025 12.263C8.09167 12.4717 8.24167 12.5923 8.475 12.625L12.525 13.025L10.075 16.35C10.025 16.4333 10 16.521 10 16.613C10 16.705 10.0417 16.7923 10.125 16.875C10.2083 16.9583 10.3 17 10.4 17C10.5 17 10.5917 16.9583 10.675 16.875Z" fill="black" fill-opacity="0.2"/>
</g>
</g>
</svg>
