<svg width="24" height="24" viewBox="0 0 24 24" fill="none" xmlns="http://www.w3.org/2000/svg">
<g id="Icon">
<g id="Vector">
<path d="M12.6851 6.42603C13.7833 6.42603 14.8365 6.86227 15.613 7.6388C16.3895 8.41533 16.8258 9.46852 16.8258 10.5667C16.8258 11.5923 16.4499 12.5351 15.832 13.2613L16.004 13.4333H16.5073L19.6924 16.6185L18.7369 17.574L15.5517 14.3889V13.8856L15.3797 13.7136C14.6535 14.3315 13.7107 14.7074 12.6851 14.7074C11.5869 14.7074 10.5337 14.2711 9.75721 13.4946C8.98068 12.7181 8.54443 11.6649 8.54443 10.5667C8.54443 9.46852 8.98068 8.41533 9.75721 7.6388C10.5337 6.86227 11.5869 6.42603 12.6851 6.42603ZM12.6851 7.70008C11.0925 7.70008 9.81849 8.97413 9.81849 10.5667C9.81849 12.1593 11.0925 13.4333 12.6851 13.4333C14.2777 13.4333 15.5517 12.1593 15.5517 10.5667C15.5517 8.97413 14.2777 7.70008 12.6851 7.70008Z" fill="#1B1B1B"/>
<path d="M12.6851 6.42603C13.7833 6.42603 14.8365 6.86227 15.613 7.6388C16.3895 8.41533 16.8258 9.46852 16.8258 10.5667C16.8258 11.5923 16.4499 12.5351 15.832 13.2613L16.004 13.4333H16.5073L19.6924 16.6185L18.7369 17.574L15.5517 14.3889V13.8856L15.3797 13.7136C14.6535 14.3315 13.7107 14.7074 12.6851 14.7074C11.5869 14.7074 10.5337 14.2711 9.75721 13.4946C8.98068 12.7181 8.54443 11.6649 8.54443 10.5667C8.54443 9.46852 8.98068 8.41533 9.75721 7.6388C10.5337 6.86227 11.5869 6.42603 12.6851 6.42603ZM12.6851 7.70008C11.0925 7.70008 9.81849 8.97413 9.81849 10.5667C9.81849 12.1593 11.0925 13.4333 12.6851 13.4333C14.2777 13.4333 15.5517 12.1593 15.5517 10.5667C15.5517 8.97413 14.2777 7.70008 12.6851 7.70008Z" fill="black" fill-opacity="0.2"/>
</g>
</g>
</svg>
