<svg width="17" height="16" viewBox="0 0 17 16" fill="none" xmlns="http://www.w3.org/2000/svg">
<g id="phone-outgoing" clip-path="url(#clip0_1332_27249)">
<g id="Vector">
<path d="M15.9785 4.66666V0.666664H11.9785" stroke="#1B1B1B" stroke-linecap="round" stroke-linejoin="round"/>
<path d="M15.9785 4.66666V0.666664H11.9785" stroke="black" stroke-opacity="0.2" stroke-linecap="round" stroke-linejoin="round"/>
</g>
<g id="Vector_2">
<path d="M11.312 5.33333L15.9787 0.666664" stroke="#1B1B1B" stroke-linecap="round" stroke-linejoin="round"/>
<path d="M11.312 5.33333L15.9787 0.666664" stroke="black" stroke-opacity="0.2" stroke-linecap="round" stroke-linejoin="round"/>
</g>
<g id="Vector_3">
<path d="M15.312 11.28V13.28C15.3127 13.4657 15.2747 13.6494 15.2003 13.8196C15.1259 13.9897 15.0168 14.1424 14.88 14.2679C14.7432 14.3934 14.5817 14.489 14.4058 14.5485C14.2299 14.608 14.0435 14.63 13.8586 14.6133C11.8072 14.3904 9.83663 13.6894 8.1053 12.5667C6.49452 11.5431 5.12886 10.1774 4.1053 8.56667C2.97862 6.82747 2.27746 4.84733 2.05863 2.78667C2.04197 2.60231 2.06388 2.41651 2.12297 2.24108C2.18205 2.06566 2.27701 1.90446 2.40181 1.76775C2.52661 1.63103 2.6785 1.5218 2.84783 1.44701C3.01715 1.37222 3.20019 1.33351 3.3853 1.33333H5.3853C5.70884 1.33015 6.0225 1.44472 6.26781 1.65569C6.51312 1.86666 6.67335 2.15963 6.71863 2.48C6.80305 3.12004 6.9596 3.74848 7.1853 4.35333C7.275 4.59195 7.29441 4.85127 7.24124 5.10059C7.18807 5.3499 7.06454 5.57874 6.8853 5.76L6.03863 6.60667C6.98767 8.2757 8.3696 9.65763 10.0386 10.6067L10.8853 9.76C11.0666 9.58076 11.2954 9.45723 11.5447 9.40406C11.794 9.35089 12.0534 9.3703 12.292 9.46C12.8968 9.6857 13.5253 9.84225 14.1653 9.92667C14.4891 9.97235 14.7849 10.1355 14.9963 10.385C15.2077 10.6345 15.3201 10.953 15.312 11.28Z" stroke="#1B1B1B" stroke-linecap="round" stroke-linejoin="round"/>
<path d="M15.312 11.28V13.28C15.3127 13.4657 15.2747 13.6494 15.2003 13.8196C15.1259 13.9897 15.0168 14.1424 14.88 14.2679C14.7432 14.3934 14.5817 14.489 14.4058 14.5485C14.2299 14.608 14.0435 14.63 13.8586 14.6133C11.8072 14.3904 9.83663 13.6894 8.1053 12.5667C6.49452 11.5431 5.12886 10.1774 4.1053 8.56667C2.97862 6.82747 2.27746 4.84733 2.05863 2.78667C2.04197 2.60231 2.06388 2.41651 2.12297 2.24108C2.18205 2.06566 2.27701 1.90446 2.40181 1.76775C2.52661 1.63103 2.6785 1.5218 2.84783 1.44701C3.01715 1.37222 3.20019 1.33351 3.3853 1.33333H5.3853C5.70884 1.33015 6.0225 1.44472 6.26781 1.65569C6.51312 1.86666 6.67335 2.15963 6.71863 2.48C6.80305 3.12004 6.9596 3.74848 7.1853 4.35333C7.275 4.59195 7.29441 4.85127 7.24124 5.10059C7.18807 5.3499 7.06454 5.57874 6.8853 5.76L6.03863 6.60667C6.98767 8.2757 8.3696 9.65763 10.0386 10.6067L10.8853 9.76C11.0666 9.58076 11.2954 9.45723 11.5447 9.40406C11.794 9.35089 12.0534 9.3703 12.292 9.46C12.8968 9.6857 13.5253 9.84225 14.1653 9.92667C14.4891 9.97235 14.7849 10.1355 14.9963 10.385C15.2077 10.6345 15.3201 10.953 15.312 11.28Z" stroke="black" stroke-opacity="0.2" stroke-linecap="round" stroke-linejoin="round"/>
</g>
</g>
<defs>
<clipPath id="clip0_1332_27249">
<rect width="16" height="16" fill="white" transform="translate(0.645264)"/>
</clipPath>
</defs>
</svg>
