<svg width="16" height="15" viewBox="0 0 16 15" fill="none" xmlns="http://www.w3.org/2000/svg">
<g id="Group 1100">
<g id="Vector">
<path d="M14.8739 4.42783V0.521973H10.968" stroke="#1B1B1B" stroke-linecap="round" stroke-linejoin="round"/>
<path d="M14.8739 4.42783V0.521973H10.968" stroke="black" stroke-opacity="0.2" stroke-linecap="round" stroke-linejoin="round"/>
</g>
<g id="Vector_2">
<path d="M10.3171 5.07881L14.874 0.521973" stroke="#1B1B1B" stroke-linecap="round" stroke-linejoin="round"/>
<path d="M10.3171 5.07881L14.874 0.521973" stroke="black" stroke-opacity="0.2" stroke-linecap="round" stroke-linejoin="round"/>
</g>
<g id="Vector_3">
<path d="M14.2233 10.886V12.8389C14.224 13.0202 14.1869 13.1997 14.1143 13.3658C14.0416 13.5319 13.9351 13.681 13.8015 13.8036C13.6679 13.9261 13.5102 14.0194 13.3385 14.0775C13.1667 14.1356 12.9847 14.1572 12.8042 14.1409C10.801 13.9232 8.87684 13.2387 7.18625 12.1424C5.61338 11.1429 4.27986 9.80937 3.28039 8.2365C2.18023 6.53823 1.49557 4.6047 1.2819 2.59253C1.26563 2.41252 1.28702 2.23108 1.34471 2.05979C1.40241 1.88849 1.49514 1.73109 1.617 1.59759C1.73886 1.4641 1.88718 1.35744 2.05252 1.28441C2.21785 1.21138 2.39659 1.17357 2.57734 1.1734H4.53027C4.84619 1.17029 5.15247 1.28217 5.39201 1.48817C5.63154 1.69418 5.788 1.98025 5.83222 2.29308C5.91465 2.91806 6.06752 3.53171 6.2879 4.12233C6.37549 4.35533 6.39444 4.60855 6.34253 4.85199C6.29061 5.09544 6.16999 5.31889 5.99496 5.49589L5.16822 6.32263C6.09493 7.95238 7.44433 9.30178 9.07408 10.2285L9.90082 9.40175C10.0778 9.22672 10.3013 9.1061 10.5447 9.05418C10.7882 9.00227 11.0414 9.02122 11.2744 9.10881C11.865 9.32919 12.4786 9.48206 13.1036 9.56449C13.4198 9.6091 13.7086 9.76838 13.9151 10.012C14.1215 10.2557 14.2312 10.5667 14.2233 10.886Z" stroke="#1B1B1B" stroke-linecap="round" stroke-linejoin="round"/>
<path d="M14.2233 10.886V12.8389C14.224 13.0202 14.1869 13.1997 14.1143 13.3658C14.0416 13.5319 13.9351 13.681 13.8015 13.8036C13.6679 13.9261 13.5102 14.0194 13.3385 14.0775C13.1667 14.1356 12.9847 14.1572 12.8042 14.1409C10.801 13.9232 8.87684 13.2387 7.18625 12.1424C5.61338 11.1429 4.27986 9.80937 3.28039 8.2365C2.18023 6.53823 1.49557 4.6047 1.2819 2.59253C1.26563 2.41252 1.28702 2.23108 1.34471 2.05979C1.40241 1.88849 1.49514 1.73109 1.617 1.59759C1.73886 1.4641 1.88718 1.35744 2.05252 1.28441C2.21785 1.21138 2.39659 1.17357 2.57734 1.1734H4.53027C4.84619 1.17029 5.15247 1.28217 5.39201 1.48817C5.63154 1.69418 5.788 1.98025 5.83222 2.29308C5.91465 2.91806 6.06752 3.53171 6.2879 4.12233C6.37549 4.35533 6.39444 4.60855 6.34253 4.85199C6.29061 5.09544 6.16999 5.31889 5.99496 5.49589L5.16822 6.32263C6.09493 7.95238 7.44433 9.30178 9.07408 10.2285L9.90082 9.40175C10.0778 9.22672 10.3013 9.1061 10.5447 9.05418C10.7882 9.00227 11.0414 9.02122 11.2744 9.10881C11.865 9.32919 12.4786 9.48206 13.1036 9.56449C13.4198 9.6091 13.7086 9.76838 13.9151 10.012C14.1215 10.2557 14.2312 10.5667 14.2233 10.886Z" stroke="black" stroke-opacity="0.2" stroke-linecap="round" stroke-linejoin="round"/>
</g>
</g>
</svg>
