<svg width="54" height="53" viewBox="0 0 54 53" fill="none" xmlns="http://www.w3.org/2000/svg">
<g style="mix-blend-mode:multiply">
<circle cx="26.9043" cy="26.3699" r="26.1357" fill="#EAC355"/>
</g>
<path d="M26.9043 38.4435V28.5269L24.071 25.6935M29.7377 27.1102L26.9043 29.9435M33.9877 18.6102V19.7435C35.6346 20.6888 36.9176 22.1582 37.632 23.9176C38.3464 25.677 38.4511 27.6249 37.9295 29.4507C37.4078 31.2765 36.2898 32.8751 34.7537 33.9914C33.2177 35.1078 31.3521 35.6777 29.4544 35.6102H24.071C22.1287 35.4783 20.2782 34.7343 18.7852 33.4849C17.2922 32.2355 16.2336 30.545 15.7614 28.6564C15.2892 26.7677 15.4278 24.778 16.1572 22.973C16.8866 21.168 18.1693 19.6406 19.821 18.6102C19.821 16.7316 20.5673 14.9299 21.8957 13.6015C23.2241 12.2731 25.0258 11.5269 26.9044 11.5269C28.783 11.5269 30.5847 12.2731 31.9131 13.6015C33.2414 14.9299 33.9877 16.7316 33.9877 18.6102Z" stroke="black" stroke-linecap="round" stroke-linejoin="round"/>
<path d="M26.9458 35.4495V37.3871L26.9459 45.4627" stroke="black" stroke-linejoin="round"/>
</svg>
