<svg width="53" height="53" viewBox="0 0 53 53" fill="none" xmlns="http://www.w3.org/2000/svg">
<g style="mix-blend-mode:multiply">
<circle cx="26.1357" cy="26.8643" r="26.1357" fill="#EAC355"/>
</g>
<g clip-path="url(#clip0_2027_2536)">
<path d="M28.2799 12.5389L12.3407 15.5317C11.7272 15.6496 11.2816 16.1866 11.2816 16.8218V19.5265C11.2816 20.0111 11.5464 20.4564 11.9726 20.6856L23.1584 26.6515C23.4168 26.7891 23.7074 26.8349 23.998 26.7825L39.9372 23.7897C40.5507 23.6718 40.9964 23.1348 40.9964 22.4996V19.795C40.9964 19.3104 40.7316 18.865 40.3053 18.6358L29.113 12.6699C28.8547 12.5324 28.5641 12.4865 28.2734 12.5389H28.2799Z" stroke="#1B1B1B" stroke-linecap="round" stroke-linejoin="round"/>
<path d="M28.2799 12.5389L12.3407 15.5317C11.7272 15.6496 11.2816 16.1866 11.2816 16.8218V19.5265C11.2816 20.0111 11.5464 20.4564 11.9726 20.6856L23.1584 26.6515C23.4168 26.7891 23.7074 26.8349 23.998 26.7825L39.9372 23.7897C40.5507 23.6718 40.9964 23.1348 40.9964 22.4996V19.795C40.9964 19.3104 40.7316 18.865 40.3053 18.6358L29.113 12.6699C28.8547 12.5324 28.5641 12.4865 28.2734 12.5389H28.2799Z" stroke="black" stroke-opacity="0.2" stroke-linecap="round" stroke-linejoin="round"/>
<path d="M14.8853 22.2571L12.3407 22.7351C11.7272 22.853 11.2816 23.39 11.2816 24.0253V26.7299C11.2816 27.2145 11.5464 27.6598 11.9726 27.889L23.1584 33.855C23.4168 33.9925 23.7074 34.0384 23.998 33.986L39.9372 30.9932C40.5507 30.8753 40.9964 30.3383 40.9964 29.7031V26.9984C40.9964 26.5138 40.7316 26.0685 40.3053 25.8393L37.3991 24.2872" stroke="#1B1B1B" stroke-linecap="round" stroke-linejoin="round"/>
<path d="M14.8853 22.2571L12.3407 22.7351C11.7272 22.853 11.2816 23.39 11.2816 24.0253V26.7299C11.2816 27.2145 11.5464 27.6598 11.9726 27.889L23.1584 33.855C23.4168 33.9925 23.7074 34.0384 23.998 33.986L39.9372 30.9932C40.5507 30.8753 40.9964 30.3383 40.9964 29.7031V26.9984C40.9964 26.5138 40.7316 26.0685 40.3053 25.8393L37.3991 24.2872" stroke="black" stroke-opacity="0.2" stroke-linecap="round" stroke-linejoin="round"/>
<path d="M14.782 29.4805L12.3407 29.9389C11.7272 30.0568 11.2816 30.5938 11.2816 31.229V33.9336C11.2816 34.4183 11.5464 34.8636 11.9726 35.0928L23.1584 41.0587C23.4168 41.1963 23.7074 41.2421 23.998 41.1897L39.9372 38.1969C40.5507 38.079 40.9964 37.542 40.9964 36.9068V34.2021C40.9964 33.7175 40.7316 33.2722 40.3053 33.043L37.3668 31.4779" stroke="#1B1B1B" stroke-linecap="round" stroke-linejoin="round"/>
<path d="M14.782 29.4805L12.3407 29.9389C11.7272 30.0568 11.2816 30.5938 11.2816 31.229V33.9336C11.2816 34.4183 11.5464 34.8636 11.9726 35.0928L23.1584 41.0587C23.4168 41.1963 23.7074 41.2421 23.998 41.1897L39.9372 38.1969C40.5507 38.079 40.9964 37.542 40.9964 36.9068V34.2021C40.9964 33.7175 40.7316 33.2722 40.3053 33.043L37.3668 31.4779" stroke="black" stroke-opacity="0.2" stroke-linecap="round" stroke-linejoin="round"/>
<path d="M13.2191 26.2126H14.5107" stroke="#1B1B1B" stroke-width="2" stroke-linejoin="round"/>
<path d="M13.2191 26.2126H14.5107" stroke="black" stroke-opacity="0.2" stroke-width="2" stroke-linejoin="round"/>
<path d="M15.8024 26.2126H17.0941" stroke="#1B1B1B" stroke-width="2" stroke-linejoin="round"/>
<path d="M15.8024 26.2126H17.0941" stroke="black" stroke-opacity="0.2" stroke-width="2" stroke-linejoin="round"/>
<path d="M17.7399 28.1772H19.0316" stroke="#1B1B1B" stroke-width="2" stroke-linejoin="round"/>
<path d="M17.7399 28.1772H19.0316" stroke="black" stroke-opacity="0.2" stroke-width="2" stroke-linejoin="round"/>
<path d="M20.9691 28.8323H22.2607" stroke="#1B1B1B" stroke-width="2" stroke-linejoin="round"/>
<path d="M20.9691 28.8323H22.2607" stroke="black" stroke-opacity="0.2" stroke-width="2" stroke-linejoin="round"/>
<path d="M23.5524 30.7969H24.8441" stroke="#1B1B1B" stroke-width="2" stroke-linejoin="round"/>
<path d="M23.5524 30.7969H24.8441" stroke="black" stroke-opacity="0.2" stroke-width="2" stroke-linejoin="round"/>
<path d="M26.1357 28.8323H27.4274" stroke="#1B1B1B" stroke-width="2" stroke-linejoin="round"/>
<path d="M26.1357 28.8323H27.4274" stroke="black" stroke-opacity="0.2" stroke-width="2" stroke-linejoin="round"/>
<path d="M28.7191 30.1418H30.0107" stroke="#1B1B1B" stroke-width="2" stroke-linejoin="round"/>
<path d="M28.7191 30.1418H30.0107" stroke="black" stroke-opacity="0.2" stroke-width="2" stroke-linejoin="round"/>
<path d="M31.3024 27.5225H32.5941" stroke="#1B1B1B" stroke-width="2" stroke-linejoin="round"/>
<path d="M31.3024 27.5225H32.5941" stroke="black" stroke-opacity="0.2" stroke-width="2" stroke-linejoin="round"/>
<path d="M33.8857 29.4871H35.1774" stroke="#1B1B1B" stroke-width="2" stroke-linejoin="round"/>
<path d="M33.8857 29.4871H35.1774" stroke="black" stroke-opacity="0.2" stroke-width="2" stroke-linejoin="round"/>
<path d="M35.1774 26.8674H36.4691" stroke="#1B1B1B" stroke-width="2" stroke-linejoin="round"/>
<path d="M35.1774 26.8674H36.4691" stroke="black" stroke-opacity="0.2" stroke-width="2" stroke-linejoin="round"/>
<path d="M37.7607 28.1772H39.0524" stroke="#1B1B1B" stroke-width="2" stroke-linejoin="round"/>
<path d="M37.7607 28.1772H39.0524" stroke="black" stroke-opacity="0.2" stroke-width="2" stroke-linejoin="round"/>
</g>
<defs>
<clipPath id="clip0_2027_2536">
<rect width="31" height="30" fill="white" transform="translate(10.6357 11.8643)"/>
</clipPath>
</defs>
</svg>
