<svg width="60" height="61" viewBox="0 0 60 61" fill="none" xmlns="http://www.w3.org/2000/svg">
<g id="Group 1088">
<g id="Ellipse 17" style="mix-blend-mode:multiply">
<circle cx="30" cy="30.4307" r="30" fill="#EAC355"/>
</g>
<g id="Group 1020">
<path id="Vector" d="M18.3333 18.7641C18.3333 18.3221 18.5088 17.8981 18.8214 17.5856C19.134 17.273 19.5579 17.0974 19.9999 17.0974H39.9999C40.4419 17.0974 40.8659 17.273 41.1784 17.5856C41.491 17.8981 41.6666 18.3221 41.6666 18.7641V42.0974C41.6666 42.5394 41.491 42.9634 41.1784 43.2759C40.8659 43.5885 40.4419 43.7641 39.9999 43.7641H19.9999C19.5579 43.7641 19.134 43.5885 18.8214 43.2759C18.5088 42.9634 18.3333 42.5394 18.3333 42.0974V18.7641Z" stroke="black" stroke-linecap="round" stroke-linejoin="round"/>
<path id="Vector_2" d="M26.6667 27.0972L30.0001 23.7639L33.3334 27.0972" stroke="black" stroke-linecap="round" stroke-linejoin="round"/>
<path id="Vector_3" d="M26.6667 33.7639L30.0001 37.0972L33.3334 33.7639" stroke="black" stroke-linecap="round" stroke-linejoin="round"/>
</g>
</g>
</svg>
