<svg width="53" height="53" viewBox="0 0 53 53" fill="none" xmlns="http://www.w3.org/2000/svg">
<path d="M18.6102 32.0854V41.8354M28.3602 36.9604V41.8354M26.7354 36.9604H40.2229C40.5409 36.956 40.8507 36.8583 41.1137 36.6794C41.3768 36.5006 41.5816 36.2485 41.7027 35.9543C41.8238 35.6602 41.8559 35.337 41.7951 35.0248C41.7342 34.7126 41.5831 34.4251 41.3604 34.1979L36.4854 28.8354H36.9729C37.2909 28.831 37.6007 28.7333 37.8637 28.5544C38.1268 28.3756 38.3316 28.1235 38.4527 27.8293C38.5738 27.5352 38.6059 27.212 38.5451 26.8998C38.4842 26.5876 38.3331 26.3001 38.1104 26.0729L33.2354 20.7104H33.5604C33.8923 20.7404 34.2254 20.6676 34.5145 20.5018C34.8036 20.3361 35.0348 20.0855 35.1767 19.7839C35.3186 19.4824 35.3644 19.1445 35.3078 18.8161C35.2512 18.4877 35.095 18.1846 34.8604 17.9479L28.3604 10.9604L26.0854 13.3979M23.4854 22.3354V22.6604C24.5511 23.0703 25.4392 23.8412 25.9947 24.8387C26.5502 25.8363 26.738 26.9972 26.5252 28.119C26.3125 29.2408 25.7127 30.2523 24.8305 30.9772C23.9483 31.7021 22.8397 32.0943 21.6979 32.0854H15.3604C14.2323 32.0574 13.1488 31.6388 12.2948 30.9011C11.4409 30.1634 10.8693 29.1523 10.6775 28.0403C10.4858 26.9282 10.6858 25.784 11.2434 24.803C11.8011 23.8219 12.6818 23.0647 13.7354 22.6604V22.3354C13.7354 21.0425 14.249 19.8025 15.1632 18.8883C16.0775 17.9741 17.3175 17.4604 18.6104 17.4604C19.9033 17.4604 21.1433 17.9741 22.0575 18.8883C22.9718 19.8025 23.4854 21.0425 23.4854 22.3354Z" stroke="black" stroke-linecap="round" stroke-linejoin="round"/>
<g style="mix-blend-mode:multiply">
<circle cx="26.2158" cy="26.3979" r="26.1357" fill="#EAC355"/>
</g>
</svg>
