<svg width="53" height="53" viewBox="0 0 53 53" fill="none" xmlns="http://www.w3.org/2000/svg">
<g style="mix-blend-mode:multiply">
<circle cx="26.1357" cy="26.1357" r="26.1357" fill="#EAC355"/>
</g>
<g clip-path="url(#clip0_2027_2535)">
<path d="M35.9443 33.6357V40.6357H12.9443V11.6357H35.9443V18.6357" stroke="#1B1B1B" stroke-linecap="round" stroke-linejoin="round"/>
<path d="M35.9443 33.6357V40.6357H12.9443V11.6357H35.9443V18.6357" stroke="black" stroke-opacity="0.2" stroke-linecap="round" stroke-linejoin="round"/>
<path d="M17.0335 16.5195V35.7521L29.8552 33.7487V18.5229L17.0335 16.5195Z" stroke="#1B1B1B" stroke-linecap="round" stroke-linejoin="round"/>
<path d="M17.0335 16.5195V35.7521L29.8552 33.7487V18.5229L17.0335 16.5195Z" stroke="black" stroke-opacity="0.2" stroke-linecap="round" stroke-linejoin="round"/>
<path d="M17.0335 26.1357H29.8552" stroke="#1B1B1B" stroke-linecap="round" stroke-linejoin="round"/>
<path d="M17.0335 26.1357H29.8552" stroke="black" stroke-opacity="0.2" stroke-linecap="round" stroke-linejoin="round"/>
<path d="M24.2457 17.7214V34.5499" stroke="#1B1B1B" stroke-linecap="round" stroke-linejoin="round"/>
<path d="M24.2457 17.7214V34.5499" stroke="black" stroke-opacity="0.2" stroke-linecap="round" stroke-linejoin="round"/>
<path d="M33.9443 26.1357C33.9443 26.1357 36.4443 24.6357 38.9443 26.1357C41.4443 27.6357 43.9443 26.1357 43.9443 26.1357" stroke="#1B1B1B" stroke-linecap="round" stroke-linejoin="round"/>
<path d="M33.9443 26.1357C33.9443 26.1357 36.4443 24.6357 38.9443 26.1357C41.4443 27.6357 43.9443 26.1357 43.9443 26.1357" stroke="black" stroke-opacity="0.2" stroke-linecap="round" stroke-linejoin="round"/>
<path d="M33.9443 21.6357C33.9443 21.6357 36.4443 20.1357 38.9443 21.6357C41.4443 23.1357 43.9443 21.6357 43.9443 21.6357" stroke="#1B1B1B" stroke-linecap="round" stroke-linejoin="round"/>
<path d="M33.9443 21.6357C33.9443 21.6357 36.4443 20.1357 38.9443 21.6357C41.4443 23.1357 43.9443 21.6357 43.9443 21.6357" stroke="black" stroke-opacity="0.2" stroke-linecap="round" stroke-linejoin="round"/>
<path d="M33.9443 30.6357C33.9443 30.6357 36.4443 29.1357 38.9443 30.6357C41.4443 32.1357 43.9443 30.6357 43.9443 30.6357" stroke="#1B1B1B" stroke-linecap="round" stroke-linejoin="round"/>
<path d="M33.9443 30.6357C33.9443 30.6357 36.4443 29.1357 38.9443 30.6357C41.4443 32.1357 43.9443 30.6357 43.9443 30.6357" stroke="black" stroke-opacity="0.2" stroke-linecap="round" stroke-linejoin="round"/>
</g>
<defs>
<clipPath id="clip0_2027_2535">
<rect width="32" height="30" fill="white" transform="translate(12.4443 11.1357)"/>
</clipPath>
</defs>
</svg>
