<svg width="54" height="53" viewBox="0 0 54 53" fill="none" xmlns="http://www.w3.org/2000/svg">
<path d="M12.3209 18.122C13.1959 18.8303 14.0709 19.5387 15.9668 19.5387C19.6126 19.5387 19.6126 16.7053 23.2584 16.7053C27.0501 16.7053 26.7584 19.5387 30.5501 19.5387C34.1959 19.5387 34.1959 16.7053 37.8418 16.7053C39.7376 16.7053 40.6126 17.4137 41.4876 18.122M12.3209 26.622C13.1959 27.3303 14.0709 28.0387 15.9668 28.0387C19.6126 28.0387 19.6126 25.2053 23.2584 25.2053C27.0501 25.2053 26.7584 28.0387 30.5501 28.0387C34.1959 28.0387 34.1959 25.2053 37.8418 25.2053C39.7376 25.2053 40.6126 25.9137 41.4876 26.622M12.3209 35.122C13.1959 35.8303 14.0709 36.5387 15.9668 36.5387C19.6126 36.5387 19.6126 33.7053 23.2584 33.7053C27.0501 33.7053 26.7584 36.5387 30.5501 36.5387C34.1959 36.5387 34.1959 33.7053 37.8418 33.7053C39.7376 33.7053 40.6126 34.4137 41.4876 35.122" stroke="black" stroke-linecap="round" stroke-linejoin="round"/>
<g style="mix-blend-mode:multiply">
<circle cx="26.9043" cy="26.6221" r="26.1357" fill="#EAC355"/>
</g>
</svg>
