<svg width="60" height="61" viewBox="0 0 60 61" fill="none" xmlns="http://www.w3.org/2000/svg">
<g id="Group 1076">
<g id="Ellipse 17" style="mix-blend-mode:multiply">
<circle cx="30" cy="30.2715" r="30" fill="#EAC355"/>
</g>
<g id="Group 1044">
<path id="Vector" d="M40 21.938L38.3333 23.6047" stroke="black" stroke-linecap="round" stroke-linejoin="round"/>
<path id="Vector_2" d="M33.3333 28.6048H35C35.884 28.6048 36.7319 28.956 37.357 29.5811C37.9821 30.2063 38.3333 31.0541 38.3333 31.9382V36.9382C38.3333 37.6012 38.5967 38.2371 39.0655 38.7059C39.5344 39.1748 40.1703 39.4382 40.8333 39.4382C41.4964 39.4382 42.1322 39.1748 42.6011 38.7059C43.0699 38.2371 43.3333 37.6012 43.3333 36.9382V25.2715L38.3333 20.2715" stroke="black" stroke-linecap="round" stroke-linejoin="round"/>
<path id="Vector_3" d="M16.6667 43.6047V20.2713C16.6667 19.3873 17.0179 18.5394 17.643 17.9143C18.2681 17.2892 19.116 16.938 20 16.938H30C30.8841 16.938 31.7319 17.2892 32.357 17.9143C32.9822 18.5394 33.3334 19.3873 33.3334 20.2713V43.6047" stroke="black" stroke-linecap="round" stroke-linejoin="round"/>
<path id="Vector_4" d="M25 29.438L22.5 33.6047H27.5L25 37.7713" stroke="black" stroke-linecap="round" stroke-linejoin="round"/>
<path id="Vector_5" d="M15 43.605H35" stroke="black" stroke-linecap="round" stroke-linejoin="round"/>
<path id="Vector_6" d="M16.6667 23.605H33.3334" stroke="black" stroke-linecap="round" stroke-linejoin="round"/>
</g>
</g>
</svg>
