<svg width="54" height="53" viewBox="0 0 54 53" fill="none" xmlns="http://www.w3.org/2000/svg">
<g id="Group 962">
<g id="Group 795">
<path id="Vector" d="M38.5918 22.5625C38.5918 31.6064 26.9639 39.3584 26.9639 39.3584C26.9639 39.3584 15.3359 31.6064 15.3359 22.5625C15.3359 19.4786 16.561 16.521 18.7417 14.3403C20.9223 12.1597 23.8799 10.9346 26.9639 10.9346C30.0478 10.9346 33.0054 12.1597 35.1861 14.3403C37.3667 16.521 38.5918 19.4786 38.5918 22.5625Z" stroke="black" stroke-linecap="round" stroke-linejoin="round"/>
<path id="Vector_2" d="M26.9639 26.4385C29.1045 26.4385 30.8398 24.7031 30.8398 22.5625C30.8398 20.4219 29.1045 18.6865 26.9639 18.6865C24.8232 18.6865 23.0879 20.4219 23.0879 22.5625C23.0879 24.7031 24.8232 26.4385 26.9639 26.4385Z" stroke="black" stroke-linecap="round" stroke-linejoin="round"/>
</g>
<g id="Ellipse 13" style="mix-blend-mode:multiply">
<circle cx="26.9639" cy="26.4385" r="26.1357" fill="#EAC355"/>
</g>
</g>
</svg>
