<svg width="54" height="54" viewBox="0 0 54 54" fill="none" xmlns="http://www.w3.org/2000/svg">
<g id="Group 957">
<path id="Vector" d="M40.6788 21.8605V16.731C40.6788 15.824 40.3185 14.9542 39.6772 14.3129C39.0359 13.6716 38.1661 13.3113 37.2591 13.3113H16.741C15.834 13.3113 14.9642 13.6716 14.3229 14.3129C13.6816 14.9542 13.3213 15.824 13.3213 16.731V21.8605M40.6788 21.8605C41.5857 21.8605 42.4556 22.2208 43.0969 22.8621C43.7382 23.5034 44.0985 24.3732 44.0985 25.2802V33.8294C44.0985 34.7364 43.7382 35.6062 43.0969 36.2475C42.4556 36.8888 41.5857 37.2491 40.6788 37.2491M40.6788 21.8605C39.7718 21.8605 38.902 22.2208 38.2607 22.8621C37.6194 23.5034 37.2591 24.3732 37.2591 25.2802V28.6999H16.741V25.2802C16.741 24.3732 16.3807 23.5034 15.7394 22.8621C15.0981 22.2208 14.2283 21.8605 13.3213 21.8605M13.3213 21.8605C12.4143 21.8605 11.5445 22.2208 10.9032 22.8621C10.2619 23.5034 9.90161 24.3732 9.90161 25.2802V33.8294C9.90161 34.7364 10.2619 35.6062 10.9032 36.2475C11.5445 36.8888 12.4143 37.2491 13.3213 37.2491M13.3213 37.2491H40.6788M13.3213 37.2491V40.6688M40.6788 37.2491V40.6688M27 13.3113V28.6999" stroke="black" stroke-linecap="round" stroke-linejoin="round"/>
<g id="Ellipse 18" style="mix-blend-mode:multiply">
<circle cx="27" cy="26.99" r="26.1357" fill="#EAC355"/>
</g>
</g>
</svg>
