<svg width="54" height="54" viewBox="0 0 54 54" fill="none" xmlns="http://www.w3.org/2000/svg">
<g id="Group 964">
<g id="Group 798">
<path id="Vector" d="M36.7431 23.2289H17.1846C15.6415 23.2289 14.3905 24.4798 14.3905 26.023V35.8022C14.3905 37.3453 15.6415 38.5963 17.1846 38.5963H36.7431C38.2862 38.5963 39.5372 37.3453 39.5372 35.8022V26.023C39.5372 24.4798 38.2862 23.2289 36.7431 23.2289Z" stroke="black" stroke-linecap="round" stroke-linejoin="round"/>
<path id="Vector_2" d="M21.8004 22.1936L21.7568 18.0236C21.7423 16.6412 22.2776 15.3096 23.2449 14.3219C24.2122 13.3341 25.5323 12.7711 26.9148 12.7567C28.2972 12.7422 29.6287 13.2775 30.6165 14.2448C31.6042 15.2121 32.1673 16.5322 32.1817 17.9147" stroke="black" stroke-linecap="round" stroke-linejoin="round"/>
</g>
<g id="Ellipse 14" style="mix-blend-mode:multiply">
<circle cx="26.9639" cy="26.9414" r="26.1357" fill="#EAC355"/>
</g>
</g>
</svg>
