<svg width="53" height="53" viewBox="0 0 53 53" fill="none" xmlns="http://www.w3.org/2000/svg">
<g id="Group 1118">
<g id="Ellipse 23" style="mix-blend-mode:multiply">
<circle cx="26.2114" cy="26.2949" r="26.1357" fill="#EAC355"/>
</g>
<path id="Vector" d="M21.052 35.8037H31.3708" stroke="black" stroke-linecap="round" stroke-linejoin="round"/>
<path id="Vector_2" d="M21.052 37.8926H31.3708" stroke="black" stroke-linecap="round" stroke-linejoin="round"/>
<path id="Vector_3" d="M31.3708 33.8408V37.8972L29.6015 39.635C29.6015 39.635 28.4625 40.666 26.2114 40.666C23.9604 40.666 22.8213 39.635 22.8213 39.635L21.052 37.8972V33.8408" stroke="black" stroke-linecap="round" stroke-linejoin="round"/>
<path id="Vector_4" d="M21.052 33.841C21.052 33.841 21.1285 33.0442 21.052 32.7065C20.9709 32.3463 20.8629 30.0638 19.8544 28.8662C16.0051 24.5712 16.4779 21.6674 16.4779 21.6674C16.4779 16.2873 20.8359 11.9293 26.2114 11.9248C31.5869 11.9293 35.9449 16.2873 35.9449 21.6674C35.9449 21.6674 36.4177 24.5757 32.5684 28.8662C31.5599 30.0638 31.4518 32.3508 31.3708 32.7065C31.2943 33.0442 31.3708 33.841 31.3708 33.841H21.052Z" stroke="black" stroke-linecap="round" stroke-linejoin="round"/>
<path id="Vector_5" d="M19.814 21.811C19.814 18.2768 22.6773 15.418 26.2069 15.418" stroke="black" stroke-linecap="round" stroke-linejoin="round"/>
</g>
</svg>
