<svg width="54" height="54" viewBox="0 0 54 54" fill="none" xmlns="http://www.w3.org/2000/svg">
<path d="M26.9043 35.24V29.99L22.4043 25.49L28.4043 20.99L31.4043 25.49H34.4043M41.9043 35.24C41.9043 38.1395 39.5538 40.49 36.6543 40.49C33.7548 40.49 31.4043 38.1395 31.4043 35.24C31.4043 32.3405 33.7548 29.99 36.6543 29.99C39.5538 29.99 41.9043 32.3405 41.9043 35.24ZM22.4043 35.24C22.4043 38.1395 20.0538 40.49 17.1543 40.49C14.2548 40.49 11.9043 38.1395 11.9043 35.24C11.9043 32.3405 14.2548 29.99 17.1543 29.99C20.0538 29.99 22.4043 32.3405 22.4043 35.24ZM32.9043 16.49C32.9043 17.3184 32.2327 17.99 31.4043 17.99C30.5759 17.99 29.9043 17.3184 29.9043 16.49C29.9043 15.6616 30.5759 14.99 31.4043 14.99C32.2327 14.99 32.9043 15.6616 32.9043 16.49Z" stroke="black" stroke-linecap="round" stroke-linejoin="round"/>
<g style="mix-blend-mode:multiply">
<circle cx="26.9043" cy="26.99" r="26.1357" fill="#EAC355"/>
</g>
</svg>
