<svg width="18" height="17" viewBox="0 0 18 17" fill="none" xmlns="http://www.w3.org/2000/svg">
<path d="M14.3717 7.9695L8.85902 2.45361L2.65723 8.65898H4.0354V13.4854C4.0354 13.8511 4.1806 14.2019 4.43906 14.4605C4.69752 14.7191 5.04806 14.8644 5.41358 14.8644H8.85902" stroke="#1B1B1B" stroke-width="0.5" stroke-linecap="round" stroke-linejoin="round"/>
<path d="M14.3717 7.9695L8.85902 2.45361L2.65723 8.65898H4.0354V13.4854C4.0354 13.8511 4.1806 14.2019 4.43906 14.4605C4.69752 14.7191 5.04806 14.8644 5.41358 14.8644H8.85902" stroke="black" stroke-opacity="0.2" stroke-width="0.5" stroke-linecap="round" stroke-linejoin="round"/>
<path d="M6.7915 14.8645V10.7276C6.7915 10.3619 6.9367 10.0111 7.19516 9.75252C7.45362 9.49392 7.80416 9.34863 8.16968 9.34863H9.54786C9.77181 9.34863 9.98267 9.40172 10.1694 9.49687" stroke="#1B1B1B" stroke-width="0.5" stroke-linecap="round" stroke-linejoin="round"/>
<path d="M6.7915 14.8645V10.7276C6.7915 10.3619 6.9367 10.0111 7.19516 9.75252C7.45362 9.49392 7.80416 9.34863 8.16968 9.34863H9.54786C9.77181 9.34863 9.98267 9.40172 10.1694 9.49687" stroke="black" stroke-opacity="0.2" stroke-width="0.5" stroke-linecap="round" stroke-linejoin="round"/>
<path d="M11.6143 15.5541C11.6143 15.5541 11.6143 14.1751 13.6815 12.7961" stroke="#1B1B1B" stroke-width="0.5" stroke-linecap="round" stroke-linejoin="round"/>
<path d="M11.6143 15.5541C11.6143 15.5541 11.6143 14.1751 13.6815 12.7961" stroke="black" stroke-opacity="0.2" stroke-width="0.5" stroke-linecap="round" stroke-linejoin="round"/>
<path d="M13.6815 14.8645C13.1332 14.8645 12.6074 14.6465 12.2197 14.2586C11.8321 13.8707 11.6143 13.3446 11.6143 12.796C11.6143 12.2474 11.8321 11.7213 12.2197 11.3334C12.6074 10.9455 13.1332 10.7275 13.6815 10.7275H15.7488V12.796C15.7488 13.3446 15.531 13.8707 15.1433 14.2586C14.7556 14.6465 14.2298 14.8645 13.6815 14.8645Z" stroke="#1B1B1B" stroke-width="0.5" stroke-linecap="round" stroke-linejoin="round"/>
<path d="M13.6815 14.8645C13.1332 14.8645 12.6074 14.6465 12.2197 14.2586C11.8321 13.8707 11.6143 13.3446 11.6143 12.796C11.6143 12.2474 11.8321 11.7213 12.2197 11.3334C12.6074 10.9455 13.1332 10.7275 13.6815 10.7275H15.7488V12.796C15.7488 13.3446 15.531 13.8707 15.1433 14.2586C14.7556 14.6465 14.2298 14.8645 13.6815 14.8645Z" stroke="black" stroke-opacity="0.2" stroke-width="0.5" stroke-linecap="round" stroke-linejoin="round"/>
</svg>
