<svg width="40" height="40" viewBox="0 0 40 40" fill="none" xmlns="http://www.w3.org/2000/svg">
<path d="M15 18.3334C15 19.6595 15.5268 20.9312 16.4645 21.8689C17.4021 22.8066 18.6739 23.3334 20 23.3334C21.3261 23.3334 22.5979 22.8066 23.5355 21.8689C24.4732 20.9312 25 19.6595 25 18.3334C25 17.0073 24.4732 15.7355 23.5355 14.7978C22.5979 13.8602 21.3261 13.3334 20 13.3334C18.6739 13.3334 17.4021 13.8602 16.4645 14.7978C15.5268 15.7355 15 17.0073 15 18.3334Z" stroke="black" stroke-linecap="round" stroke-linejoin="round"/>
<path d="M29.4284 27.7617L22.3567 34.8333C21.7317 35.4577 20.8843 35.8085 20.0009 35.8085C19.1174 35.8085 18.2701 35.4577 17.645 34.8333L10.5717 27.7617C8.70706 25.8969 7.43725 23.5212 6.92284 20.9348C6.40843 18.3484 6.67251 15.6675 7.6817 13.2312C8.69089 10.7949 10.3999 8.71257 12.5925 7.24751C14.7851 5.78246 17.363 5.00049 20 5.00049C22.6371 5.00049 25.2149 5.78246 27.4076 7.24751C29.6002 8.71257 31.3092 10.7949 32.3184 13.2312C33.3275 15.6675 33.5916 18.3484 33.0772 20.9348C32.5628 23.5212 31.293 25.8969 29.4284 27.7617Z" stroke="black" stroke-linecap="round" stroke-linejoin="round"/>
</svg>
