<svg width="30" height="31" viewBox="0 0 30 31" fill="none" xmlns="http://www.w3.org/2000/svg">
<g id="icon/linkedin">
<path id="vector" d="M26.25 5.41442V24.6056C26.25 25.0444 26.0757 25.4652 25.7654 25.7754C25.4552 26.0857 25.0344 26.26 24.5956 26.26H5.40441C4.96563 26.26 4.54483 26.0857 4.23457 25.7754C3.9243 25.4652 3.75 25.0444 3.75 24.6056V5.41442C3.75 4.97564 3.9243 4.55484 4.23457 4.24458C4.54483 3.93431 4.96563 3.76001 5.40441 3.76001H24.5956C25.0344 3.76001 25.4552 3.93431 25.7654 4.24458C26.0757 4.55484 26.25 4.97564 26.25 5.41442ZM10.3676 12.363H7.05882V22.9512H10.3676V12.363ZM10.6654 8.72324C10.6672 8.47296 10.6196 8.22478 10.5254 7.99288C10.4313 7.76098 10.2923 7.5499 10.1166 7.37169C9.94084 7.19349 9.73171 7.05164 9.50114 6.95426C9.27057 6.85687 9.02308 6.80586 8.77279 6.80413H8.71323C8.20425 6.80413 7.71612 7.00632 7.35621 7.36622C6.99631 7.72613 6.79412 8.21426 6.79412 8.72324C6.79412 9.23223 6.99631 9.72036 7.35621 10.0803C7.71612 10.4402 8.20425 10.6424 8.71323 10.6424C8.96354 10.6485 9.2126 10.6053 9.44619 10.5152C9.67979 10.425 9.89333 10.2898 10.0746 10.1171C10.2559 9.94438 10.4014 9.73766 10.5028 9.50872C10.6042 9.27978 10.6594 9.03311 10.6654 8.7828V8.72324ZM22.9412 16.5188C22.9412 13.3357 20.9162 12.0982 18.9044 12.0982C18.2457 12.0653 17.5899 12.2056 17.0023 12.5051C16.4148 12.8047 15.9161 13.2531 15.5559 13.8056H15.4632V12.363H12.3529V22.9512H15.6618V17.3196C15.6139 16.7428 15.7956 16.1704 16.1673 15.7269C16.5391 15.2833 17.0708 15.0043 17.6471 14.9505H17.7728C18.825 14.9505 19.6059 15.6122 19.6059 17.2799V22.9512H22.9147L22.9412 16.5188Z" fill="black"/>
</g>
</svg>
