<svg width="19" height="21" viewBox="0 0 19 21" fill="none" xmlns="http://www.w3.org/2000/svg">
<g id="Component 13">
<g id="Vector 753">
<path d="M4.18701 20L4.18701 16.8333" stroke="#1B1B1B" stroke-linecap="round" stroke-linejoin="round"/>
<path d="M4.18701 20L4.18701 16.8333" stroke="black" stroke-opacity="0.2" stroke-linecap="round" stroke-linejoin="round"/>
</g>
<g id="Vector 754">
<path d="M14.812 20L14.812 13.6667" stroke="#1B1B1B" stroke-linecap="round" stroke-linejoin="round"/>
<path d="M14.812 20L14.812 13.6667" stroke="black" stroke-opacity="0.2" stroke-linecap="round" stroke-linejoin="round"/>
</g>
<g id="Vector 757">
<path d="M14.812 4.1665L14.812 0.999837" stroke="#1B1B1B" stroke-linecap="round" stroke-linejoin="round"/>
<path d="M14.812 4.1665L14.812 0.999837" stroke="black" stroke-opacity="0.2" stroke-linecap="round" stroke-linejoin="round"/>
</g>
<g id="Vector 758">
<path d="M4.18701 7.3335L4.18701 1.00016" stroke="#1B1B1B" stroke-linecap="round" stroke-linejoin="round"/>
<path d="M4.18701 7.3335L4.18701 1.00016" stroke="black" stroke-opacity="0.2" stroke-linecap="round" stroke-linejoin="round"/>
</g>
<g id="Rectangle 2129">
<path d="M4.18696 16.8333C3.19685 16.8333 2.70179 16.8333 2.31129 16.6726C1.79061 16.4584 1.37694 16.0474 1.16126 15.5301C0.999512 15.1421 0.999512 14.6503 0.999512 13.6667C0.999512 12.683 0.999512 12.1912 1.16126 11.8032C1.37694 11.2859 1.79061 10.875 2.31129 10.6607C2.70179 10.5 3.19685 10.5 4.18696 10.5C5.17706 10.5 5.67212 10.5 6.06263 10.6607C6.5833 10.875 6.99698 11.2859 7.21265 11.8032C7.3744 12.1912 7.3744 12.683 7.3744 13.6667C7.3744 14.6503 7.3744 15.1421 7.21265 15.5301C6.99698 16.0474 6.5833 16.4584 6.06263 16.6726C5.67212 16.8333 5.17707 16.8333 4.18696 16.8333Z" stroke="#1B1B1B"/>
<path d="M4.18696 16.8333C3.19685 16.8333 2.70179 16.8333 2.31129 16.6726C1.79061 16.4584 1.37694 16.0474 1.16126 15.5301C0.999512 15.1421 0.999512 14.6503 0.999512 13.6667C0.999512 12.683 0.999512 12.1912 1.16126 11.8032C1.37694 11.2859 1.79061 10.875 2.31129 10.6607C2.70179 10.5 3.19685 10.5 4.18696 10.5C5.17706 10.5 5.67212 10.5 6.06263 10.6607C6.5833 10.875 6.99698 11.2859 7.21265 11.8032C7.3744 12.1912 7.3744 12.683 7.3744 13.6667C7.3744 14.6503 7.3744 15.1421 7.21265 15.5301C6.99698 16.0474 6.5833 16.4584 6.06263 16.6726C5.67212 16.8333 5.17707 16.8333 4.18696 16.8333Z" stroke="black" stroke-opacity="0.2"/>
</g>
<g id="Rectangle 2130">
<path d="M14.812 10.4998C13.8218 10.4998 13.3268 10.4998 12.9363 10.3391C12.4156 10.1249 12.0019 9.7139 11.7863 9.19661C11.6245 8.80865 11.6245 8.31683 11.6245 7.33317C11.6245 6.34952 11.6245 5.85769 11.7863 5.46973C12.0019 4.95245 12.4156 4.54147 12.9363 4.3272C13.3268 4.1665 13.8218 4.1665 14.812 4.1665C15.8021 4.1665 16.2971 4.1665 16.6876 4.3272C17.2083 4.54147 17.622 4.95245 17.8376 5.46973C17.9994 5.85769 17.9994 6.34952 17.9994 7.33317C17.9994 8.31683 17.9994 8.80865 17.8376 9.19661C17.622 9.7139 17.2083 10.1249 16.6876 10.3391C16.2971 10.4998 15.8021 10.4998 14.812 10.4998Z" stroke="#1B1B1B"/>
<path d="M14.812 10.4998C13.8218 10.4998 13.3268 10.4998 12.9363 10.3391C12.4156 10.1249 12.0019 9.7139 11.7863 9.19661C11.6245 8.80865 11.6245 8.31683 11.6245 7.33317C11.6245 6.34952 11.6245 5.85769 11.7863 5.46973C12.0019 4.95245 12.4156 4.54147 12.9363 4.3272C13.3268 4.1665 13.8218 4.1665 14.812 4.1665C15.8021 4.1665 16.2971 4.1665 16.6876 4.3272C17.2083 4.54147 17.622 4.95245 17.8376 5.46973C17.9994 5.85769 17.9994 6.34952 17.9994 7.33317C17.9994 8.31683 17.9994 8.80865 17.8376 9.19661C17.622 9.7139 17.2083 10.1249 16.6876 10.3391C16.2971 10.4998 15.8021 10.4998 14.812 10.4998Z" stroke="black" stroke-opacity="0.2"/>
</g>
</g>
</svg>
