<svg width="19" height="22" viewBox="0 0 19 22" fill="none" xmlns="http://www.w3.org/2000/svg">
<g id="Group 993">
<path id="Vector" d="M17.7365 9.17185C17.7365 15.6295 9.19099 21.1647 9.19099 21.1647C9.19099 21.1647 0.645508 15.6295 0.645508 9.17185C0.645508 6.96983 1.54583 4.85801 3.14842 3.30095C4.75101 1.74389 6.92459 0.869141 9.19099 0.869141C11.4574 0.869141 13.631 1.74389 15.2336 3.30095C16.8361 4.85801 17.7365 6.96983 17.7365 9.17185Z" stroke="black" stroke-linecap="round" stroke-linejoin="round"/>
<path id="Vector_2" d="M9.19088 12.6191C10.9607 12.6191 12.3954 11.1843 12.3954 9.41452C12.3954 7.64469 10.9607 6.20996 9.19088 6.20996C7.42106 6.20996 5.98633 7.64469 5.98633 9.41452C5.98633 11.1843 7.42106 12.6191 9.19088 12.6191Z" stroke="black" stroke-linecap="round" stroke-linejoin="round"/>
</g>
</svg>
