<svg width="20" height="20" viewBox="0 0 20 20" fill="none" xmlns="http://www.w3.org/2000/svg">
<g id="Union">
<path id="Union_2" fill-rule="evenodd" clip-rule="evenodd" d="M1.27148 0.865234C0.995342 0.865234 0.771484 1.08909 0.771484 1.36523V8.09443C0.771484 8.37057 0.995342 8.59443 1.27148 8.59443H8.00068C8.27682 8.59443 8.50068 8.37057 8.50068 8.09443V1.36523C8.50068 1.08909 8.27682 0.865234 8.00068 0.865234H1.27148ZM1.77148 7.59443V1.86523H7.50068V7.59443H1.77148ZM11.8462 0.865479C11.57 0.865479 11.3462 1.08934 11.3462 1.36548V8.09468C11.3462 8.37082 11.57 8.59468 11.8462 8.59468H18.5754C18.8515 8.59468 19.0754 8.37082 19.0754 8.09468V1.36548C19.0754 1.08934 18.8515 0.865479 18.5754 0.865479H11.8462ZM12.3462 7.59468V1.86548H18.0754V7.59468H12.3462ZM11.3462 11.9399C11.3462 11.6638 11.57 11.4399 11.8462 11.4399H18.5754C18.8515 11.4399 19.0754 11.6638 19.0754 11.9399V18.6691C19.0754 18.9453 18.8515 19.1691 18.5754 19.1691H11.8462C11.57 19.1691 11.3462 18.9453 11.3462 18.6691V11.9399ZM12.3462 12.4399V18.1691H18.0754V12.4399H12.3462ZM1.27148 11.4399C0.995342 11.4399 0.771484 11.6638 0.771484 11.9399V18.6691C0.771484 18.9453 0.995342 19.1691 1.27148 19.1691H8.00068C8.27682 19.1691 8.50068 18.9453 8.50068 18.6691V11.9399C8.50068 11.6638 8.27682 11.4399 8.00068 11.4399H1.27148ZM1.77148 18.1691V12.4399H7.50068V18.1691H1.77148Z" fill="black"/>
</g>
</svg>
