<svg width="37" height="36" viewBox="0 0 37 36" fill="none" xmlns="http://www.w3.org/2000/svg">
<g id="Group 326">
<g id="Group 325">
<g id="Group 317">
<g id="MENU">
<g id="Group 307">
<g id="IDENTIDAD">
<path id="Vector" d="M32.2673 0V27.513L28.2339 21.8036L24.2005 16.0943L12.8248 0H12.1004H8.067H7.90057L8.067 0.227615L12.1004 5.93696L24.2005 23.065L28.2339 28.7743L32.2673 34.4742L33.3246 35.9727H36.3007V33.2223V0H32.2673Z" fill="white"/>
<path id="Vector_2" d="M8.06668 35.9728H12.1001V26.8397L8.06668 21.1304V35.9728Z" fill="white"/>
<path id="Vector_3" d="M24.2003 30.0262L12.1001 12.9077L8.06676 7.19833L4.03338 1.48898L2.97609 0H0V2.75035V35.9727H4.03338V8.45969L8.06676 14.169L12.1001 19.8784L23.4758 35.9727H24.2003H28.2337H28.4001L28.2337 35.7356L24.2003 30.0262Z" fill="white"/>
<path id="Vector_4" d="M28.2342 0H24.2008V9.12357L28.2342 14.8329V0Z" fill="white"/>
</g>
</g>
</g>
</g>
</g>
</g>
</svg>
